<mxfile host="app.diagrams.net" modified="2020-10-10T08:48:18.164Z" agent="5.0 (Windows NT 10.0; WOW64) AppleWebKit/537.36 (KHTML, like Gecko) Chrome/70.0.3538.25 Safari/537.36 Core/1.70.3775.400 QQBrowser/10.6.4208.400" etag="4fT0nqXbYMuY0ch2xDax" version="13.7.9" type="github" pages="11">
  <diagram id="dfsjJOCDfcXxTvF2x-UX" name="Page-1">
    <mxGraphModel dx="1164" dy="637" grid="1" gridSize="10" guides="1" tooltips="1" connect="1" arrows="1" fold="1" page="1" pageScale="1" pageWidth="827" pageHeight="1169" math="0" shadow="0">
      <root>
        <mxCell id="0" />
        <mxCell id="1" parent="0" />
        <mxCell id="Q1EzImdmwnzOT42dKUeT-1" value="服务" style="rounded=0;whiteSpace=wrap;html=1;verticalAlign=top;fontStyle=3" vertex="1" parent="1">
          <mxGeometry x="1107.111083984375" y="205.66668701171875" width="200" height="290" as="geometry" />
        </mxCell>
        <mxCell id="Q1EzImdmwnzOT42dKUeT-2" style="edgeStyle=none;rounded=0;orthogonalLoop=1;jettySize=auto;html=1;entryX=0;entryY=0.5;entryDx=0;entryDy=0;" edge="1" parent="1" source="Q1EzImdmwnzOT42dKUeT-3" target="Q1EzImdmwnzOT42dKUeT-9">
          <mxGeometry relative="1" as="geometry" />
        </mxCell>
        <mxCell id="Q1EzImdmwnzOT42dKUeT-3" value="站点入口1" style="rounded=1;whiteSpace=wrap;html=1;" vertex="1" parent="1">
          <mxGeometry x="697.111083984375" y="235.66668701171875" width="120" height="60" as="geometry" />
        </mxCell>
        <mxCell id="Q1EzImdmwnzOT42dKUeT-4" style="edgeStyle=none;rounded=0;orthogonalLoop=1;jettySize=auto;html=1;entryX=0;entryY=0.5;entryDx=0;entryDy=0;exitX=1;exitY=0.5;exitDx=0;exitDy=0;" edge="1" parent="1" source="Q1EzImdmwnzOT42dKUeT-5" target="Q1EzImdmwnzOT42dKUeT-9">
          <mxGeometry relative="1" as="geometry" />
        </mxCell>
        <mxCell id="Q1EzImdmwnzOT42dKUeT-5" value="站点入口1" style="rounded=1;whiteSpace=wrap;html=1;" vertex="1" parent="1">
          <mxGeometry x="697.111083984375" y="335.66668701171875" width="120" height="60" as="geometry" />
        </mxCell>
        <mxCell id="Q1EzImdmwnzOT42dKUeT-6" style="edgeStyle=none;rounded=0;orthogonalLoop=1;jettySize=auto;html=1;exitX=1;exitY=0.5;exitDx=0;exitDy=0;" edge="1" parent="1" source="Q1EzImdmwnzOT42dKUeT-7">
          <mxGeometry relative="1" as="geometry">
            <mxPoint x="917.111083984375" y="265.66668701171875" as="targetPoint" />
          </mxGeometry>
        </mxCell>
        <mxCell id="Q1EzImdmwnzOT42dKUeT-7" value="站点入口1" style="rounded=1;whiteSpace=wrap;html=1;" vertex="1" parent="1">
          <mxGeometry x="697.111083984375" y="425.66668701171875" width="120" height="60" as="geometry" />
        </mxCell>
        <mxCell id="Q1EzImdmwnzOT42dKUeT-8" style="edgeStyle=none;rounded=0;orthogonalLoop=1;jettySize=auto;html=1;entryX=0;entryY=0.5;entryDx=0;entryDy=0;" edge="1" parent="1" source="Q1EzImdmwnzOT42dKUeT-9" target="Q1EzImdmwnzOT42dKUeT-1">
          <mxGeometry relative="1" as="geometry" />
        </mxCell>
        <mxCell id="Q1EzImdmwnzOT42dKUeT-9" value="系统入口" style="rounded=1;whiteSpace=wrap;html=1;" vertex="1" parent="1">
          <mxGeometry x="920.111083984375" y="235.66668701171875" width="120" height="60" as="geometry" />
        </mxCell>
        <mxCell id="Q1EzImdmwnzOT42dKUeT-10" style="edgeStyle=none;rounded=0;orthogonalLoop=1;jettySize=auto;html=1;entryX=0;entryY=0.5;entryDx=0;entryDy=0;" edge="1" parent="1" source="Q1EzImdmwnzOT42dKUeT-13" target="Q1EzImdmwnzOT42dKUeT-3">
          <mxGeometry relative="1" as="geometry" />
        </mxCell>
        <mxCell id="Q1EzImdmwnzOT42dKUeT-11" style="edgeStyle=none;rounded=0;orthogonalLoop=1;jettySize=auto;html=1;entryX=0;entryY=0.5;entryDx=0;entryDy=0;" edge="1" parent="1" source="Q1EzImdmwnzOT42dKUeT-13" target="Q1EzImdmwnzOT42dKUeT-5">
          <mxGeometry relative="1" as="geometry" />
        </mxCell>
        <mxCell id="Q1EzImdmwnzOT42dKUeT-12" style="edgeStyle=none;rounded=0;orthogonalLoop=1;jettySize=auto;html=1;entryX=0;entryY=0.5;entryDx=0;entryDy=0;" edge="1" parent="1" source="Q1EzImdmwnzOT42dKUeT-13" target="Q1EzImdmwnzOT42dKUeT-7">
          <mxGeometry relative="1" as="geometry" />
        </mxCell>
        <mxCell id="Q1EzImdmwnzOT42dKUeT-13" value="玩家" style="shape=umlActor;verticalLabelPosition=bottom;labelBackgroundColor=#ffffff;verticalAlign=top;html=1;outlineConnect=0;" vertex="1" parent="1">
          <mxGeometry x="567.111083984375" y="335.66668701171875" width="30" height="60" as="geometry" />
        </mxCell>
        <mxCell id="Q1EzImdmwnzOT42dKUeT-14" value="用户" style="rounded=1;whiteSpace=wrap;html=1;" vertex="1" parent="1">
          <mxGeometry x="1147.111083984375" y="235.66668701171875" width="120" height="60" as="geometry" />
        </mxCell>
        <mxCell id="Q1EzImdmwnzOT42dKUeT-15" value="业务系统" style="rounded=1;whiteSpace=wrap;html=1;" vertex="1" parent="1">
          <mxGeometry x="1147.111083984375" y="325.66668701171875" width="120" height="60" as="geometry" />
        </mxCell>
        <mxCell id="Q1EzImdmwnzOT42dKUeT-16" value="业务系统" style="rounded=1;whiteSpace=wrap;html=1;" vertex="1" parent="1">
          <mxGeometry x="1147.111083984375" y="405.66668701171875" width="120" height="60" as="geometry" />
        </mxCell>
        <mxCell id="Q1EzImdmwnzOT42dKUeT-17" style="edgeStyle=none;rounded=0;orthogonalLoop=1;jettySize=auto;html=1;entryX=0;entryY=0.5;entryDx=0;entryDy=0;" edge="1" parent="1" source="Q1EzImdmwnzOT42dKUeT-18" target="Q1EzImdmwnzOT42dKUeT-1">
          <mxGeometry relative="1" as="geometry" />
        </mxCell>
        <mxCell id="Q1EzImdmwnzOT42dKUeT-18" value="monogo" style="rounded=1;whiteSpace=wrap;html=1;" vertex="1" parent="1">
          <mxGeometry x="922.111083984375" y="325.66668701171875" width="120" height="60" as="geometry" />
        </mxCell>
        <mxCell id="Q1EzImdmwnzOT42dKUeT-19" style="edgeStyle=none;rounded=0;orthogonalLoop=1;jettySize=auto;html=1;entryX=0;entryY=0.75;entryDx=0;entryDy=0;" edge="1" parent="1" source="Q1EzImdmwnzOT42dKUeT-20" target="Q1EzImdmwnzOT42dKUeT-1">
          <mxGeometry relative="1" as="geometry" />
        </mxCell>
        <mxCell id="Q1EzImdmwnzOT42dKUeT-20" value="console" style="rounded=1;whiteSpace=wrap;html=1;" vertex="1" parent="1">
          <mxGeometry x="922.111083984375" y="405.66668701171875" width="120" height="60" as="geometry" />
        </mxCell>
        <mxCell id="Q1EzImdmwnzOT42dKUeT-21" style="edgeStyle=none;rounded=0;orthogonalLoop=1;jettySize=auto;html=1;entryX=0;entryY=0.5;entryDx=0;entryDy=0;" edge="1" parent="1" source="Q1EzImdmwnzOT42dKUeT-22" target="Q1EzImdmwnzOT42dKUeT-18">
          <mxGeometry relative="1" as="geometry" />
        </mxCell>
        <mxCell id="Q1EzImdmwnzOT42dKUeT-22" value="庄家" style="shape=umlActor;verticalLabelPosition=bottom;labelBackgroundColor=#ffffff;verticalAlign=top;html=1;outlineConnect=0;" vertex="1" parent="1">
          <mxGeometry x="867.111083984375" y="405.66668701171875" width="30" height="60" as="geometry" />
        </mxCell>
        <mxCell id="Q1EzImdmwnzOT42dKUeT-23" style="edgeStyle=none;rounded=0;orthogonalLoop=1;jettySize=auto;html=1;entryX=0.5;entryY=1;entryDx=0;entryDy=0;" edge="1" parent="1" source="Q1EzImdmwnzOT42dKUeT-24" target="Q1EzImdmwnzOT42dKUeT-20">
          <mxGeometry relative="1" as="geometry" />
        </mxCell>
        <mxCell id="Q1EzImdmwnzOT42dKUeT-24" value="系统管理员" style="shape=umlActor;verticalLabelPosition=bottom;labelBackgroundColor=#ffffff;verticalAlign=top;html=1;outlineConnect=0;" vertex="1" parent="1">
          <mxGeometry x="965.111083984375" y="535.6666870117188" width="30" height="60" as="geometry" />
        </mxCell>
        <mxCell id="Q1EzImdmwnzOT42dKUeT-25" style="rounded=0;orthogonalLoop=1;jettySize=auto;html=1;entryX=0.5;entryY=0;entryDx=0;entryDy=0;dashed=1;dashPattern=1 1;" edge="1" parent="1" source="Q1EzImdmwnzOT42dKUeT-26" target="Q1EzImdmwnzOT42dKUeT-9">
          <mxGeometry relative="1" as="geometry" />
        </mxCell>
        <mxCell id="Q1EzImdmwnzOT42dKUeT-26" value="系统内部网关" style="text;html=1;strokeColor=#6c8ebf;fillColor=#dae8fc;align=center;verticalAlign=middle;whiteSpace=wrap;rounded=0;shadow=1;" vertex="1" parent="1">
          <mxGeometry x="936.611083984375" y="150.66668701171875" width="87" height="30" as="geometry" />
        </mxCell>
        <mxCell id="Q1EzImdmwnzOT42dKUeT-27" style="edgeStyle=none;rounded=0;orthogonalLoop=1;jettySize=auto;html=1;entryX=0.5;entryY=0;entryDx=0;entryDy=0;dashed=1;dashPattern=1 1;" edge="1" parent="1" source="Q1EzImdmwnzOT42dKUeT-28" target="Q1EzImdmwnzOT42dKUeT-1">
          <mxGeometry relative="1" as="geometry" />
        </mxCell>
        <mxCell id="Q1EzImdmwnzOT42dKUeT-28" value="功能服务" style="text;html=1;strokeColor=#6c8ebf;fillColor=#dae8fc;align=center;verticalAlign=middle;whiteSpace=wrap;rounded=0;shadow=1;" vertex="1" parent="1">
          <mxGeometry x="1157.111083984375" y="125.66668701171875" width="87" height="30" as="geometry" />
        </mxCell>
        <mxCell id="Q1EzImdmwnzOT42dKUeT-29" style="edgeStyle=none;rounded=0;orthogonalLoop=1;jettySize=auto;html=1;entryX=0.5;entryY=0;entryDx=0;entryDy=0;dashed=1;dashPattern=1 1;" edge="1" parent="1" source="Q1EzImdmwnzOT42dKUeT-30" target="Q1EzImdmwnzOT42dKUeT-3">
          <mxGeometry relative="1" as="geometry" />
        </mxCell>
        <mxCell id="Q1EzImdmwnzOT42dKUeT-30" value="站点" style="text;html=1;strokeColor=#6c8ebf;fillColor=#dae8fc;align=center;verticalAlign=middle;whiteSpace=wrap;rounded=0;shadow=1;" vertex="1" parent="1">
          <mxGeometry x="713.611083984375" y="150.66668701171875" width="87" height="30" as="geometry" />
        </mxCell>
      </root>
    </mxGraphModel>
  </diagram>
  <diagram name="系统整体架构" id="8tAJokx7kxW3dnP6md0o">
    <mxGraphModel dx="1991" dy="637" grid="1" gridSize="10" guides="1" tooltips="1" connect="1" arrows="1" fold="1" page="1" pageScale="1" pageWidth="827" pageHeight="1169" math="0" shadow="0">
      <root>
        <mxCell id="xUNJXipZapMtVsNiG3tj-0" />
        <mxCell id="xUNJXipZapMtVsNiG3tj-1" parent="xUNJXipZapMtVsNiG3tj-0" />
        <mxCell id="xUNJXipZapMtVsNiG3tj-18" value="内网服务化环境" style="rounded=0;whiteSpace=wrap;html=1;verticalAlign=top;dashed=1;" parent="xUNJXipZapMtVsNiG3tj-1" vertex="1">
          <mxGeometry x="135" y="226" width="795" height="524" as="geometry" />
        </mxCell>
        <mxCell id="xUNJXipZapMtVsNiG3tj-51" style="edgeStyle=none;rounded=0;orthogonalLoop=1;jettySize=auto;html=1;entryX=0.522;entryY=0.068;entryDx=0;entryDy=0;entryPerimeter=0;exitX=1;exitY=0.5;exitDx=0;exitDy=0;" parent="xUNJXipZapMtVsNiG3tj-1" source="xUNJXipZapMtVsNiG3tj-7" target="xUNJXipZapMtVsNiG3tj-32" edge="1">
          <mxGeometry relative="1" as="geometry" />
        </mxCell>
        <mxCell id="xUNJXipZapMtVsNiG3tj-7" value="接口服务集群" style="rounded=1;whiteSpace=wrap;html=1;verticalAlign=top;" parent="xUNJXipZapMtVsNiG3tj-1" vertex="1">
          <mxGeometry x="150" y="240" width="290" height="100" as="geometry" />
        </mxCell>
        <mxCell id="xUNJXipZapMtVsNiG3tj-8" style="rounded=0;orthogonalLoop=1;jettySize=auto;html=1;entryX=0.5;entryY=0;entryDx=0;entryDy=0;" parent="xUNJXipZapMtVsNiG3tj-1" source="xUNJXipZapMtVsNiG3tj-2" target="xUNJXipZapMtVsNiG3tj-7" edge="1">
          <mxGeometry relative="1" as="geometry" />
        </mxCell>
        <mxCell id="xUNJXipZapMtVsNiG3tj-17" style="edgeStyle=none;rounded=0;orthogonalLoop=1;jettySize=auto;html=1;entryX=0.5;entryY=0;entryDx=0;entryDy=0;" parent="xUNJXipZapMtVsNiG3tj-1" source="xUNJXipZapMtVsNiG3tj-2" target="xUNJXipZapMtVsNiG3tj-16" edge="1">
          <mxGeometry relative="1" as="geometry" />
        </mxCell>
        <mxCell id="xUNJXipZapMtVsNiG3tj-2" value="站点" style="outlineConnect=0;dashed=0;verticalLabelPosition=bottom;verticalAlign=top;align=center;html=1;shape=mxgraph.aws3.internet_gateway;fillColor=#F58536;gradientColor=none;" parent="xUNJXipZapMtVsNiG3tj-1" vertex="1">
          <mxGeometry x="320" y="120" width="69" height="72" as="geometry" />
        </mxCell>
        <mxCell id="xUNJXipZapMtVsNiG3tj-3" value="" style="html=1;shadow=0;dashed=0;align=center;verticalAlign=middle;shape=mxgraph.arrows2.arrow;dy=0.6;dx=40;direction=south;notch=0;" parent="xUNJXipZapMtVsNiG3tj-1" vertex="1">
          <mxGeometry x="339" y="20" width="31" height="100" as="geometry" />
        </mxCell>
        <mxCell id="xUNJXipZapMtVsNiG3tj-4" value="peach" style="aspect=fixed;html=1;points=[];align=center;image;fontSize=12;image=img/lib/mscae/API_Management.svg;" parent="xUNJXipZapMtVsNiG3tj-1" vertex="1">
          <mxGeometry x="180" y="260" width="50" height="42" as="geometry" />
        </mxCell>
        <mxCell id="xUNJXipZapMtVsNiG3tj-5" value="peach" style="aspect=fixed;html=1;points=[];align=center;image;fontSize=12;image=img/lib/mscae/API_Management.svg;" parent="xUNJXipZapMtVsNiG3tj-1" vertex="1">
          <mxGeometry x="270" y="260" width="50" height="42" as="geometry" />
        </mxCell>
        <mxCell id="xUNJXipZapMtVsNiG3tj-6" value="peach" style="aspect=fixed;html=1;points=[];align=center;image;fontSize=12;image=img/lib/mscae/API_Management.svg;" parent="xUNJXipZapMtVsNiG3tj-1" vertex="1">
          <mxGeometry x="354.5" y="260" width="50" height="42" as="geometry" />
        </mxCell>
        <mxCell id="xUNJXipZapMtVsNiG3tj-33" style="edgeStyle=none;rounded=0;orthogonalLoop=1;jettySize=auto;html=1;" parent="xUNJXipZapMtVsNiG3tj-1" source="xUNJXipZapMtVsNiG3tj-10" target="xUNJXipZapMtVsNiG3tj-32" edge="1">
          <mxGeometry relative="1" as="geometry" />
        </mxCell>
        <mxCell id="xUNJXipZapMtVsNiG3tj-10" value="mongo" style="pointerEvents=1;shadow=0;dashed=0;html=1;strokeColor=none;labelPosition=center;verticalLabelPosition=bottom;verticalAlign=top;align=center;fillColor=#515151;shape=mxgraph.mscae.enterprise.database_server" parent="xUNJXipZapMtVsNiG3tj-1" vertex="1">
          <mxGeometry x="540" y="256" width="80" height="64" as="geometry" />
        </mxCell>
        <mxCell id="xUNJXipZapMtVsNiG3tj-34" style="edgeStyle=none;rounded=0;orthogonalLoop=1;jettySize=auto;html=1;entryX=0.625;entryY=0.2;entryDx=0;entryDy=0;entryPerimeter=0;" parent="xUNJXipZapMtVsNiG3tj-1" source="xUNJXipZapMtVsNiG3tj-11" target="xUNJXipZapMtVsNiG3tj-32" edge="1">
          <mxGeometry relative="1" as="geometry" />
        </mxCell>
        <mxCell id="xUNJXipZapMtVsNiG3tj-11" value="lotmall" style="pointerEvents=1;shadow=0;dashed=0;html=1;strokeColor=none;labelPosition=center;verticalLabelPosition=bottom;verticalAlign=top;align=center;fillColor=#515151;shape=mxgraph.mscae.enterprise.database_server" parent="xUNJXipZapMtVsNiG3tj-1" vertex="1">
          <mxGeometry x="730" y="256" width="80" height="64" as="geometry" />
        </mxCell>
        <mxCell id="xUNJXipZapMtVsNiG3tj-16" value="站点个性化展示" style="rounded=1;whiteSpace=wrap;html=1;" parent="xUNJXipZapMtVsNiG3tj-1" vertex="1">
          <mxGeometry x="-100" y="240" width="220" height="100" as="geometry" />
        </mxCell>
        <mxCell id="xUNJXipZapMtVsNiG3tj-36" style="edgeStyle=none;rounded=0;orthogonalLoop=1;jettySize=auto;html=1;" parent="xUNJXipZapMtVsNiG3tj-1" source="xUNJXipZapMtVsNiG3tj-20" target="xUNJXipZapMtVsNiG3tj-32" edge="1">
          <mxGeometry relative="1" as="geometry" />
        </mxCell>
        <mxCell id="xUNJXipZapMtVsNiG3tj-20" value="user用户" style="ellipse;whiteSpace=wrap;html=1;dashed=1;" parent="xUNJXipZapMtVsNiG3tj-1" vertex="1">
          <mxGeometry x="167" y="420" width="98.0625" height="58.536585365853654" as="geometry" />
        </mxCell>
        <mxCell id="xUNJXipZapMtVsNiG3tj-35" style="edgeStyle=none;rounded=0;orthogonalLoop=1;jettySize=auto;html=1;" parent="xUNJXipZapMtVsNiG3tj-1" source="xUNJXipZapMtVsNiG3tj-21" target="xUNJXipZapMtVsNiG3tj-32" edge="1">
          <mxGeometry relative="1" as="geometry" />
        </mxCell>
        <mxCell id="xUNJXipZapMtVsNiG3tj-21" value="cash现金" style="ellipse;whiteSpace=wrap;html=1;dashed=1;" parent="xUNJXipZapMtVsNiG3tj-1" vertex="1">
          <mxGeometry x="300.2015625" y="420" width="98.0625" height="58.536585365853654" as="geometry" />
        </mxCell>
        <mxCell id="xUNJXipZapMtVsNiG3tj-44" style="edgeStyle=none;rounded=0;orthogonalLoop=1;jettySize=auto;html=1;entryX=0.8;entryY=0.8;entryDx=0;entryDy=0;entryPerimeter=0;" parent="xUNJXipZapMtVsNiG3tj-1" source="xUNJXipZapMtVsNiG3tj-22" target="xUNJXipZapMtVsNiG3tj-32" edge="1">
          <mxGeometry relative="1" as="geometry" />
        </mxCell>
        <mxCell id="xUNJXipZapMtVsNiG3tj-22" value="game游戏" style="ellipse;whiteSpace=wrap;html=1;dashed=1;" parent="xUNJXipZapMtVsNiG3tj-1" vertex="1">
          <mxGeometry x="422.34375" y="420" width="98.0625" height="58.536585365853654" as="geometry" />
        </mxCell>
        <mxCell id="xUNJXipZapMtVsNiG3tj-45" style="edgeStyle=none;rounded=0;orthogonalLoop=1;jettySize=auto;html=1;entryX=0.875;entryY=0.5;entryDx=0;entryDy=0;entryPerimeter=0;" parent="xUNJXipZapMtVsNiG3tj-1" source="xUNJXipZapMtVsNiG3tj-23" target="xUNJXipZapMtVsNiG3tj-32" edge="1">
          <mxGeometry relative="1" as="geometry" />
        </mxCell>
        <mxCell id="xUNJXipZapMtVsNiG3tj-23" value="plateform平台/站点" style="ellipse;whiteSpace=wrap;html=1;dashed=1;" parent="xUNJXipZapMtVsNiG3tj-1" vertex="1">
          <mxGeometry x="776.9375" y="420" width="98.0625" height="58.536585365853654" as="geometry" />
        </mxCell>
        <mxCell id="xUNJXipZapMtVsNiG3tj-37" style="edgeStyle=none;rounded=0;orthogonalLoop=1;jettySize=auto;html=1;entryX=0.16;entryY=0.55;entryDx=0;entryDy=0;entryPerimeter=0;" parent="xUNJXipZapMtVsNiG3tj-1" source="xUNJXipZapMtVsNiG3tj-24" target="xUNJXipZapMtVsNiG3tj-32" edge="1">
          <mxGeometry relative="1" as="geometry" />
        </mxCell>
        <mxCell id="xUNJXipZapMtVsNiG3tj-24" value="trade（下单）" style="ellipse;whiteSpace=wrap;html=1;dashed=1;" parent="xUNJXipZapMtVsNiG3tj-1" vertex="1">
          <mxGeometry x="167" y="510.7317073170732" width="98.0625" height="58.536585365853654" as="geometry" />
        </mxCell>
        <mxCell id="xUNJXipZapMtVsNiG3tj-38" style="edgeStyle=none;rounded=0;orthogonalLoop=1;jettySize=auto;html=1;entryX=0.16;entryY=0.55;entryDx=0;entryDy=0;entryPerimeter=0;" parent="xUNJXipZapMtVsNiG3tj-1" source="xUNJXipZapMtVsNiG3tj-25" target="xUNJXipZapMtVsNiG3tj-32" edge="1">
          <mxGeometry relative="1" as="geometry" />
        </mxCell>
        <mxCell id="xUNJXipZapMtVsNiG3tj-25" value="trade-pre-lottery&lt;br&gt;预开奖" style="ellipse;whiteSpace=wrap;html=1;dashed=1;" parent="xUNJXipZapMtVsNiG3tj-1" vertex="1">
          <mxGeometry x="167" y="601.4634146341464" width="98.0625" height="58.536585365853654" as="geometry" />
        </mxCell>
        <mxCell id="xUNJXipZapMtVsNiG3tj-39" style="edgeStyle=none;rounded=0;orthogonalLoop=1;jettySize=auto;html=1;" parent="xUNJXipZapMtVsNiG3tj-1" source="xUNJXipZapMtVsNiG3tj-26" target="xUNJXipZapMtVsNiG3tj-32" edge="1">
          <mxGeometry relative="1" as="geometry" />
        </mxCell>
        <mxCell id="xUNJXipZapMtVsNiG3tj-26" value="lottery&lt;br&gt;开奖器" style="ellipse;whiteSpace=wrap;html=1;dashed=1;" parent="xUNJXipZapMtVsNiG3tj-1" vertex="1">
          <mxGeometry x="301.42734375" y="601.4634146341464" width="98.0625" height="58.536585365853654" as="geometry" />
        </mxCell>
        <mxCell id="xUNJXipZapMtVsNiG3tj-40" style="edgeStyle=none;rounded=0;orthogonalLoop=1;jettySize=auto;html=1;entryX=0.31;entryY=0.8;entryDx=0;entryDy=0;entryPerimeter=0;" parent="xUNJXipZapMtVsNiG3tj-1" source="xUNJXipZapMtVsNiG3tj-27" target="xUNJXipZapMtVsNiG3tj-32" edge="1">
          <mxGeometry relative="1" as="geometry" />
        </mxCell>
        <mxCell id="xUNJXipZapMtVsNiG3tj-27" value="trade-lottery&lt;br&gt;订单开奖" style="ellipse;whiteSpace=wrap;html=1;dashed=1;" parent="xUNJXipZapMtVsNiG3tj-1" vertex="1">
          <mxGeometry x="422.37109375" y="601.4634146341464" width="98.0625" height="58.536585365853654" as="geometry" />
        </mxCell>
        <mxCell id="xUNJXipZapMtVsNiG3tj-42" style="edgeStyle=none;rounded=0;orthogonalLoop=1;jettySize=auto;html=1;" parent="xUNJXipZapMtVsNiG3tj-1" source="xUNJXipZapMtVsNiG3tj-30" target="xUNJXipZapMtVsNiG3tj-32" edge="1">
          <mxGeometry relative="1" as="geometry" />
        </mxCell>
        <mxCell id="xUNJXipZapMtVsNiG3tj-30" value="trade-order-batch&lt;br&gt;" style="ellipse;whiteSpace=wrap;html=1;dashed=1;" parent="xUNJXipZapMtVsNiG3tj-1" vertex="1">
          <mxGeometry x="559.90625" y="601.4634146341464" width="98.0625" height="58.536585365853654" as="geometry" />
        </mxCell>
        <mxCell id="xUNJXipZapMtVsNiG3tj-43" style="edgeStyle=none;rounded=0;orthogonalLoop=1;jettySize=auto;html=1;entryX=0.8;entryY=0.8;entryDx=0;entryDy=0;entryPerimeter=0;" parent="xUNJXipZapMtVsNiG3tj-1" source="xUNJXipZapMtVsNiG3tj-31" target="xUNJXipZapMtVsNiG3tj-32" edge="1">
          <mxGeometry relative="1" as="geometry" />
        </mxCell>
        <mxCell id="xUNJXipZapMtVsNiG3tj-31" value="trade-batch&lt;br&gt;" style="ellipse;whiteSpace=wrap;html=1;dashed=1;" parent="xUNJXipZapMtVsNiG3tj-1" vertex="1">
          <mxGeometry x="689.90625" y="601.4634146341464" width="98.0625" height="58.536585365853654" as="geometry" />
        </mxCell>
        <mxCell id="xUNJXipZapMtVsNiG3tj-32" value="spring cloud" style="ellipse;shape=cloud;whiteSpace=wrap;html=1;dashed=1;" parent="xUNJXipZapMtVsNiG3tj-1" vertex="1">
          <mxGeometry x="510" y="498" width="92" height="59" as="geometry" />
        </mxCell>
        <mxCell id="xUNJXipZapMtVsNiG3tj-46" value="" style="html=1;shadow=0;dashed=0;align=center;verticalAlign=middle;shape=mxgraph.arrows2.arrow;dy=0.6;dx=40;direction=south;notch=0;" parent="xUNJXipZapMtVsNiG3tj-1" vertex="1">
          <mxGeometry x="556" y="160" width="31" height="100" as="geometry" />
        </mxCell>
        <mxCell id="xUNJXipZapMtVsNiG3tj-47" value="" style="html=1;shadow=0;dashed=0;align=center;verticalAlign=middle;shape=mxgraph.arrows2.arrow;dy=0.6;dx=40;direction=south;notch=0;" parent="xUNJXipZapMtVsNiG3tj-1" vertex="1">
          <mxGeometry x="739" y="156" width="31" height="100" as="geometry" />
        </mxCell>
        <mxCell id="xUNJXipZapMtVsNiG3tj-49" style="edgeStyle=none;rounded=0;orthogonalLoop=1;jettySize=auto;html=1;" parent="xUNJXipZapMtVsNiG3tj-1" source="xUNJXipZapMtVsNiG3tj-48" target="xUNJXipZapMtVsNiG3tj-32" edge="1">
          <mxGeometry relative="1" as="geometry" />
        </mxCell>
        <mxCell id="xUNJXipZapMtVsNiG3tj-48" value="apple（支付通知）" style="ellipse;whiteSpace=wrap;html=1;dashed=1;" parent="xUNJXipZapMtVsNiG3tj-1" vertex="1">
          <mxGeometry x="776.9375" y="498.5" width="98.0625" height="58.536585365853654" as="geometry" />
        </mxCell>
        <mxCell id="xUNJXipZapMtVsNiG3tj-50" value="" style="html=1;shadow=0;dashed=0;align=center;verticalAlign=middle;shape=mxgraph.arrows2.arrow;dy=0.6;dx=40;direction=south;notch=0;rotation=90;" parent="xUNJXipZapMtVsNiG3tj-1" vertex="1">
          <mxGeometry x="910" y="477.5" width="31" height="100" as="geometry" />
        </mxCell>
      </root>
    </mxGraphModel>
  </diagram>
  <diagram name="业务架构" id="geuw7eZjQ13IlVpTwAqf">
    <mxGraphModel dx="1164" dy="637" grid="1" gridSize="10" guides="1" tooltips="1" connect="1" arrows="1" fold="1" page="1" pageScale="1" pageWidth="827" pageHeight="1169" math="0" shadow="0">
      <root>
        <mxCell id="XI9faSeCB2C3j7aMWWzk-0" />
        <mxCell id="XI9faSeCB2C3j7aMWWzk-1" parent="XI9faSeCB2C3j7aMWWzk-0" />
        <mxCell id="DFwzGEy-IwOk6uHHBOqk-0" value="核心能力" style="rounded=0;whiteSpace=wrap;html=1;dashed=1;verticalAlign=top;align=left;horizontal=1;" parent="XI9faSeCB2C3j7aMWWzk-1" vertex="1">
          <mxGeometry x="50" y="510" width="700" height="150" as="geometry" />
        </mxCell>
        <mxCell id="DFwzGEy-IwOk6uHHBOqk-17" value="多站点支撑" style="rounded=0;whiteSpace=wrap;html=1;dashed=1;align=center;" parent="XI9faSeCB2C3j7aMWWzk-1" vertex="1">
          <mxGeometry x="75" y="590" width="325" height="40" as="geometry" />
        </mxCell>
        <mxCell id="DFwzGEy-IwOk6uHHBOqk-18" value="站点资金管理" style="rounded=0;whiteSpace=wrap;html=1;dashed=1;align=center;" parent="XI9faSeCB2C3j7aMWWzk-1" vertex="1">
          <mxGeometry x="340" y="540" width="120" height="40" as="geometry" />
        </mxCell>
        <mxCell id="DFwzGEy-IwOk6uHHBOqk-19" value="多游戏支撑" style="rounded=0;whiteSpace=wrap;html=1;dashed=1;align=center;" parent="XI9faSeCB2C3j7aMWWzk-1" vertex="1">
          <mxGeometry x="205" y="540" width="120" height="40" as="geometry" />
        </mxCell>
        <mxCell id="DFwzGEy-IwOk6uHHBOqk-20" value="站点运营&amp;amp;监控" style="rounded=0;whiteSpace=wrap;html=1;dashed=1;align=center;" parent="XI9faSeCB2C3j7aMWWzk-1" vertex="1">
          <mxGeometry x="480" y="540" width="120" height="40" as="geometry" />
        </mxCell>
        <mxCell id="DFwzGEy-IwOk6uHHBOqk-21" value="站点客户&amp;amp;员工" style="rounded=0;whiteSpace=wrap;html=1;dashed=1;align=center;" parent="XI9faSeCB2C3j7aMWWzk-1" vertex="1">
          <mxGeometry x="620" y="540" width="120" height="40" as="geometry" />
        </mxCell>
        <mxCell id="DFwzGEy-IwOk6uHHBOqk-25" value="游戏产品" style="rounded=0;whiteSpace=wrap;html=1;dashed=1;verticalAlign=top;align=left;horizontal=1;" parent="XI9faSeCB2C3j7aMWWzk-1" vertex="1">
          <mxGeometry x="50" y="330" width="700" height="160" as="geometry" />
        </mxCell>
        <mxCell id="DFwzGEy-IwOk6uHHBOqk-22" value="电子游艺" style="rounded=0;whiteSpace=wrap;html=1;dashed=1;verticalAlign=middle;align=center;horizontal=1;" parent="XI9faSeCB2C3j7aMWWzk-1" vertex="1">
          <mxGeometry x="75" y="360" width="115" height="40" as="geometry" />
        </mxCell>
        <mxCell id="DFwzGEy-IwOk6uHHBOqk-30" value="体育赛事" style="rounded=0;whiteSpace=wrap;html=1;dashed=1;verticalAlign=middle;align=center;horizontal=1;" parent="XI9faSeCB2C3j7aMWWzk-1" vertex="1">
          <mxGeometry x="330" y="360" width="115" height="40" as="geometry" />
        </mxCell>
        <mxCell id="DFwzGEy-IwOk6uHHBOqk-31" value="彩票游戏" style="rounded=0;whiteSpace=wrap;html=1;dashed=1;verticalAlign=middle;align=center;horizontal=1;" parent="XI9faSeCB2C3j7aMWWzk-1" vertex="1">
          <mxGeometry x="580" y="360" width="115" height="40" as="geometry" />
        </mxCell>
        <mxCell id="DFwzGEy-IwOk6uHHBOqk-32" value="真人视讯" style="rounded=0;whiteSpace=wrap;html=1;dashed=1;verticalAlign=middle;align=center;horizontal=1;" parent="XI9faSeCB2C3j7aMWWzk-1" vertex="1">
          <mxGeometry x="580" y="420" width="115" height="40" as="geometry" />
        </mxCell>
        <mxCell id="DFwzGEy-IwOk6uHHBOqk-33" value="电子竞技" style="rounded=0;whiteSpace=wrap;html=1;dashed=1;verticalAlign=middle;align=center;horizontal=1;" parent="XI9faSeCB2C3j7aMWWzk-1" vertex="1">
          <mxGeometry x="75" y="420" width="115" height="40" as="geometry" />
        </mxCell>
        <mxCell id="DFwzGEy-IwOk6uHHBOqk-34" value="棋牌游戏" style="rounded=0;whiteSpace=wrap;html=1;dashed=1;verticalAlign=middle;align=center;horizontal=1;" parent="XI9faSeCB2C3j7aMWWzk-1" vertex="1">
          <mxGeometry x="330" y="420" width="115" height="40" as="geometry" />
        </mxCell>
        <mxCell id="DFwzGEy-IwOk6uHHBOqk-35" value="多渠道充值提现" style="rounded=0;whiteSpace=wrap;html=1;dashed=1;align=center;" parent="XI9faSeCB2C3j7aMWWzk-1" vertex="1">
          <mxGeometry x="75" y="540" width="120" height="40" as="geometry" />
        </mxCell>
        <mxCell id="DFwzGEy-IwOk6uHHBOqk-36" value="" style="html=1;shadow=0;dashed=0;align=center;verticalAlign=middle;shape=mxgraph.arrows2.arrow;dy=0;dx=30;notch=30;" parent="XI9faSeCB2C3j7aMWWzk-1" vertex="1">
          <mxGeometry x="760" y="460" width="60" height="60" as="geometry" />
        </mxCell>
        <mxCell id="DFwzGEy-IwOk6uHHBOqk-37" value="平台能力" style="rounded=0;whiteSpace=wrap;html=1;dashed=1;verticalAlign=top;align=left;horizontal=1;" parent="XI9faSeCB2C3j7aMWWzk-1" vertex="1">
          <mxGeometry x="834" y="330" width="216" height="330" as="geometry" />
        </mxCell>
        <mxCell id="DFwzGEy-IwOk6uHHBOqk-38" value="lotmall" style="rounded=0;whiteSpace=wrap;html=1;dashed=1;align=center;" parent="XI9faSeCB2C3j7aMWWzk-1" vertex="1">
          <mxGeometry x="880" y="360" width="120" height="60" as="geometry" />
        </mxCell>
        <mxCell id="DFwzGEy-IwOk6uHHBOqk-39" value="mongo" style="rounded=0;whiteSpace=wrap;html=1;dashed=1;align=center;" parent="XI9faSeCB2C3j7aMWWzk-1" vertex="1">
          <mxGeometry x="880" y="430" width="120" height="60" as="geometry" />
        </mxCell>
        <mxCell id="DFwzGEy-IwOk6uHHBOqk-40" value="通用站点" style="rounded=0;whiteSpace=wrap;html=1;dashed=1;align=center;" parent="XI9faSeCB2C3j7aMWWzk-1" vertex="1">
          <mxGeometry x="882" y="500" width="120" height="60" as="geometry" />
        </mxCell>
        <mxCell id="DFwzGEy-IwOk6uHHBOqk-41" value="个性化站点" style="rounded=0;whiteSpace=wrap;html=1;dashed=1;align=center;" parent="XI9faSeCB2C3j7aMWWzk-1" vertex="1">
          <mxGeometry x="882" y="570" width="120" height="60" as="geometry" />
        </mxCell>
        <mxCell id="DFwzGEy-IwOk6uHHBOqk-42" value="统一账号" style="rounded=0;whiteSpace=wrap;html=1;dashed=1;align=center;" parent="XI9faSeCB2C3j7aMWWzk-1" vertex="1">
          <mxGeometry x="413" y="590" width="325" height="40" as="geometry" />
        </mxCell>
      </root>
    </mxGraphModel>
  </diagram>
  <diagram name="应用架构" id="cMSyWfDx9U0d7Ws_1qd0">
    <mxGraphModel dx="1164" dy="637" grid="1" gridSize="10" guides="1" tooltips="1" connect="1" arrows="1" fold="1" page="1" pageScale="1" pageWidth="827" pageHeight="1169" math="0" shadow="0">
      <root>
        <mxCell id="tp2U04UbEOa_7GAwPjT3-0" />
        <mxCell id="tp2U04UbEOa_7GAwPjT3-1" parent="tp2U04UbEOa_7GAwPjT3-0" />
        <mxCell id="tp2U04UbEOa_7GAwPjT3-2" value="SaaS平台" style="rounded=0;whiteSpace=wrap;html=1;dashed=1;align=center;verticalAlign=top;" parent="tp2U04UbEOa_7GAwPjT3-1" vertex="1">
          <mxGeometry x="50" y="470" width="590" height="190" as="geometry" />
        </mxCell>
        <mxCell id="tp2U04UbEOa_7GAwPjT3-3" value="授权&amp;amp;安全" style="rounded=0;whiteSpace=wrap;html=1;dashed=1;align=center;" parent="tp2U04UbEOa_7GAwPjT3-1" vertex="1">
          <mxGeometry x="70" y="510" width="110" height="40" as="geometry" />
        </mxCell>
        <mxCell id="tp2U04UbEOa_7GAwPjT3-4" value="站点管理" style="rounded=0;whiteSpace=wrap;html=1;dashed=1;align=center;" parent="tp2U04UbEOa_7GAwPjT3-1" vertex="1">
          <mxGeometry x="70" y="600" width="260" height="40" as="geometry" />
        </mxCell>
        <mxCell id="tp2U04UbEOa_7GAwPjT3-5" value="游戏配置" style="rounded=0;whiteSpace=wrap;html=1;dashed=1;align=center;" parent="tp2U04UbEOa_7GAwPjT3-1" vertex="1">
          <mxGeometry x="210" y="555" width="120" height="40" as="geometry" />
        </mxCell>
        <mxCell id="tp2U04UbEOa_7GAwPjT3-6" value="充值&amp;amp;提现" style="rounded=0;whiteSpace=wrap;html=1;dashed=1;align=center;" parent="tp2U04UbEOa_7GAwPjT3-1" vertex="1">
          <mxGeometry x="210" y="510" width="120" height="40" as="geometry" />
        </mxCell>
        <mxCell id="tp2U04UbEOa_7GAwPjT3-7" value="站点运营" style="rounded=0;whiteSpace=wrap;html=1;dashed=1;align=center;" parent="tp2U04UbEOa_7GAwPjT3-1" vertex="1">
          <mxGeometry x="350" y="600" width="250" height="40" as="geometry" />
        </mxCell>
        <mxCell id="tp2U04UbEOa_7GAwPjT3-8" value="账号" style="rounded=0;whiteSpace=wrap;html=1;dashed=1;align=center;" parent="tp2U04UbEOa_7GAwPjT3-1" vertex="1">
          <mxGeometry x="70" y="555" width="110" height="40" as="geometry" />
        </mxCell>
        <mxCell id="tp2U04UbEOa_7GAwPjT3-9" value="代理推广" style="rounded=0;whiteSpace=wrap;html=1;dashed=1;align=center;" parent="tp2U04UbEOa_7GAwPjT3-1" vertex="1">
          <mxGeometry x="350" y="555" width="120" height="40" as="geometry" />
        </mxCell>
        <mxCell id="tp2U04UbEOa_7GAwPjT3-10" value="分红&amp;amp;分红" style="rounded=0;whiteSpace=wrap;html=1;dashed=1;align=center;" parent="tp2U04UbEOa_7GAwPjT3-1" vertex="1">
          <mxGeometry x="480" y="555" width="120" height="40" as="geometry" />
        </mxCell>
        <mxCell id="tp2U04UbEOa_7GAwPjT3-11" value="经营报表" style="rounded=0;whiteSpace=wrap;html=1;dashed=1;align=center;" parent="tp2U04UbEOa_7GAwPjT3-1" vertex="1">
          <mxGeometry x="350" y="510" width="250" height="40" as="geometry" />
        </mxCell>
        <mxCell id="5kl8tj5XRdey2mnulE7C-0" value="通用服务" style="rounded=0;whiteSpace=wrap;html=1;dashed=1;align=center;verticalAlign=top;" parent="tp2U04UbEOa_7GAwPjT3-1" vertex="1">
          <mxGeometry x="660" y="470" width="210" height="190" as="geometry" />
        </mxCell>
        <mxCell id="5kl8tj5XRdey2mnulE7C-1" value="订单（下注）中心" style="rounded=0;whiteSpace=wrap;html=1;dashed=1;align=center;" parent="tp2U04UbEOa_7GAwPjT3-1" vertex="1">
          <mxGeometry x="743" y="500" width="110" height="30" as="geometry" />
        </mxCell>
        <mxCell id="5kl8tj5XRdey2mnulE7C-2" value="游戏中心" style="rounded=0;whiteSpace=wrap;html=1;dashed=1;align=center;" parent="tp2U04UbEOa_7GAwPjT3-1" vertex="1">
          <mxGeometry x="743" y="540" width="110" height="30" as="geometry" />
        </mxCell>
        <mxCell id="5kl8tj5XRdey2mnulE7C-3" value="开奖公告" style="rounded=0;whiteSpace=wrap;html=1;dashed=1;align=center;" parent="tp2U04UbEOa_7GAwPjT3-1" vertex="1">
          <mxGeometry x="743" y="580" width="110" height="30" as="geometry" />
        </mxCell>
        <mxCell id="5kl8tj5XRdey2mnulE7C-4" value="个人中心" style="rounded=0;whiteSpace=wrap;html=1;dashed=1;align=center;" parent="tp2U04UbEOa_7GAwPjT3-1" vertex="1">
          <mxGeometry x="743" y="620" width="110" height="30" as="geometry" />
        </mxCell>
        <mxCell id="5kl8tj5XRdey2mnulE7C-5" value="基础服务" style="rounded=0;whiteSpace=wrap;html=1;dashed=1;align=center;verticalAlign=top;" parent="tp2U04UbEOa_7GAwPjT3-1" vertex="1">
          <mxGeometry x="880" y="470" width="190" height="190" as="geometry" />
        </mxCell>
        <mxCell id="5kl8tj5XRdey2mnulE7C-10" value="外部接入" style="rounded=0;whiteSpace=wrap;html=1;dashed=1;align=center;verticalAlign=top;" parent="tp2U04UbEOa_7GAwPjT3-1" vertex="1">
          <mxGeometry x="1080" y="470" width="120" height="190" as="geometry" />
        </mxCell>
        <mxCell id="5kl8tj5XRdey2mnulE7C-11" value="游戏接入" style="rounded=0;whiteSpace=wrap;html=1;dashed=1;align=center;" parent="tp2U04UbEOa_7GAwPjT3-1" vertex="1">
          <mxGeometry x="1100" y="500" width="80" height="30" as="geometry" />
        </mxCell>
        <mxCell id="5kl8tj5XRdey2mnulE7C-12" value="支付接入" style="rounded=0;whiteSpace=wrap;html=1;dashed=1;align=center;" parent="tp2U04UbEOa_7GAwPjT3-1" vertex="1">
          <mxGeometry x="1100" y="535" width="80" height="30" as="geometry" />
        </mxCell>
        <mxCell id="5kl8tj5XRdey2mnulE7C-13" value="产品" style="rounded=0;whiteSpace=wrap;html=1;dashed=1;align=center;verticalAlign=top;" parent="tp2U04UbEOa_7GAwPjT3-1" vertex="1">
          <mxGeometry x="50" y="260" width="1150" height="190" as="geometry" />
        </mxCell>
        <mxCell id="5kl8tj5XRdey2mnulE7C-14" value="lotmall" style="rounded=0;whiteSpace=wrap;html=1;dashed=1;align=center;" parent="tp2U04UbEOa_7GAwPjT3-1" vertex="1">
          <mxGeometry x="180" y="330" width="120" height="60" as="geometry" />
        </mxCell>
        <mxCell id="5kl8tj5XRdey2mnulE7C-15" value="mongo" style="rounded=0;whiteSpace=wrap;html=1;dashed=1;align=center;" parent="tp2U04UbEOa_7GAwPjT3-1" vertex="1">
          <mxGeometry x="350" y="330" width="120" height="60" as="geometry" />
        </mxCell>
        <mxCell id="5kl8tj5XRdey2mnulE7C-17" value="游戏" style="rounded=0;whiteSpace=wrap;html=1;dashed=1;align=center;verticalAlign=top;" parent="tp2U04UbEOa_7GAwPjT3-1" vertex="1">
          <mxGeometry x="570" y="290" width="610" height="150" as="geometry" />
        </mxCell>
        <mxCell id="VHGC86NnML4KRGaXLxbb-0" value="电子游艺" style="rounded=0;whiteSpace=wrap;html=1;dashed=1;verticalAlign=middle;align=center;horizontal=1;" parent="tp2U04UbEOa_7GAwPjT3-1" vertex="1">
          <mxGeometry x="600" y="315" width="115" height="40" as="geometry" />
        </mxCell>
        <mxCell id="VHGC86NnML4KRGaXLxbb-1" value="体育赛事" style="rounded=0;whiteSpace=wrap;html=1;dashed=1;verticalAlign=middle;align=center;horizontal=1;" parent="tp2U04UbEOa_7GAwPjT3-1" vertex="1">
          <mxGeometry x="827.5" y="320" width="115" height="40" as="geometry" />
        </mxCell>
        <mxCell id="VHGC86NnML4KRGaXLxbb-2" value="彩票游戏" style="rounded=0;whiteSpace=wrap;html=1;dashed=1;verticalAlign=middle;align=center;horizontal=1;" parent="tp2U04UbEOa_7GAwPjT3-1" vertex="1">
          <mxGeometry x="1030" y="320" width="115" height="40" as="geometry" />
        </mxCell>
        <mxCell id="VHGC86NnML4KRGaXLxbb-3" value="真人视讯" style="rounded=0;whiteSpace=wrap;html=1;dashed=1;verticalAlign=middle;align=center;horizontal=1;" parent="tp2U04UbEOa_7GAwPjT3-1" vertex="1">
          <mxGeometry x="1030" y="380" width="115" height="40" as="geometry" />
        </mxCell>
        <mxCell id="VHGC86NnML4KRGaXLxbb-4" value="电子竞技" style="rounded=0;whiteSpace=wrap;html=1;dashed=1;verticalAlign=middle;align=center;horizontal=1;" parent="tp2U04UbEOa_7GAwPjT3-1" vertex="1">
          <mxGeometry x="600" y="375" width="115" height="40" as="geometry" />
        </mxCell>
        <mxCell id="VHGC86NnML4KRGaXLxbb-5" value="棋牌游戏" style="rounded=0;whiteSpace=wrap;html=1;dashed=1;verticalAlign=middle;align=center;horizontal=1;" parent="tp2U04UbEOa_7GAwPjT3-1" vertex="1">
          <mxGeometry x="827.5" y="380" width="115" height="40" as="geometry" />
        </mxCell>
        <mxCell id="VHGC86NnML4KRGaXLxbb-6" value="解决方案" style="rounded=0;whiteSpace=wrap;html=1;dashed=1;align=center;verticalAlign=top;" parent="tp2U04UbEOa_7GAwPjT3-1" vertex="1">
          <mxGeometry x="50" y="110" width="1150" height="120" as="geometry" />
        </mxCell>
        <mxCell id="VHGC86NnML4KRGaXLxbb-7" value="通用站点" style="rounded=0;whiteSpace=wrap;html=1;dashed=1;align=center;" parent="tp2U04UbEOa_7GAwPjT3-1" vertex="1">
          <mxGeometry x="280" y="140" width="120" height="60" as="geometry" />
        </mxCell>
        <mxCell id="VHGC86NnML4KRGaXLxbb-8" value="个性化站点" style="rounded=0;whiteSpace=wrap;html=1;dashed=1;align=center;" parent="tp2U04UbEOa_7GAwPjT3-1" vertex="1">
          <mxGeometry x="857" y="140" width="120" height="60" as="geometry" />
        </mxCell>
        <mxCell id="uPwb3Mv8CzQajw0f9jOp-0" value="游戏开奖&lt;br&gt;&amp;amp;结算" style="rounded=0;whiteSpace=wrap;html=1;dashed=1;align=center;" parent="tp2U04UbEOa_7GAwPjT3-1" vertex="1">
          <mxGeometry x="670" y="500" width="60" height="150" as="geometry" />
        </mxCell>
        <mxCell id="uPwb3Mv8CzQajw0f9jOp-1" value="外部开奖结果" style="rounded=0;whiteSpace=wrap;html=1;dashed=1;align=center;" parent="tp2U04UbEOa_7GAwPjT3-1" vertex="1">
          <mxGeometry x="1100" y="575" width="80" height="30" as="geometry" />
        </mxCell>
        <mxCell id="5kl8tj5XRdey2mnulE7C-6" value="登录/注册" style="rounded=0;whiteSpace=wrap;html=1;dashed=1;align=center;" parent="tp2U04UbEOa_7GAwPjT3-1" vertex="1">
          <mxGeometry x="890" y="495" width="80" height="29" as="geometry" />
        </mxCell>
        <mxCell id="5kl8tj5XRdey2mnulE7C-7" value="权限控制" style="rounded=0;whiteSpace=wrap;html=1;dashed=1;align=center;" parent="tp2U04UbEOa_7GAwPjT3-1" vertex="1">
          <mxGeometry x="890" y="533.6666666666666" width="80" height="29" as="geometry" />
        </mxCell>
        <mxCell id="5kl8tj5XRdey2mnulE7C-9" value="充值&amp;amp;提现" style="rounded=0;whiteSpace=wrap;html=1;dashed=1;align=center;" parent="tp2U04UbEOa_7GAwPjT3-1" vertex="1">
          <mxGeometry x="890" y="611" width="80" height="29" as="geometry" />
        </mxCell>
        <mxCell id="5kl8tj5XRdey2mnulE7C-16" value="站点模板" style="rounded=0;whiteSpace=wrap;html=1;dashed=1;align=center;" parent="tp2U04UbEOa_7GAwPjT3-1" vertex="1">
          <mxGeometry x="890" y="570.4" width="80" height="33.833333333333336" as="geometry" />
        </mxCell>
        <mxCell id="OnpmzZzlSVFz2CukVlr8-1" value="聊天室" style="rounded=0;whiteSpace=wrap;html=1;dashed=1;align=center;" parent="tp2U04UbEOa_7GAwPjT3-1" vertex="1">
          <mxGeometry x="980" y="495" width="80" height="29" as="geometry" />
        </mxCell>
        <mxCell id="OnpmzZzlSVFz2CukVlr8-2" value="视频聊天" style="rounded=0;whiteSpace=wrap;html=1;dashed=1;align=center;" parent="tp2U04UbEOa_7GAwPjT3-1" vertex="1">
          <mxGeometry x="980" y="536" width="80" height="29" as="geometry" />
        </mxCell>
      </root>
    </mxGraphModel>
  </diagram>
  <diagram name="技术栈" id="Z_A-yGXFDsQ7RQNosTO7">
    <mxGraphModel dx="1164" dy="637" grid="1" gridSize="10" guides="1" tooltips="1" connect="1" arrows="1" fold="1" page="1" pageScale="1" pageWidth="827" pageHeight="1169" math="0" shadow="0">
      <root>
        <mxCell id="gPVi5fXZko-4Ada1sAHV-0" />
        <mxCell id="gPVi5fXZko-4Ada1sAHV-1" parent="gPVi5fXZko-4Ada1sAHV-0" />
        <mxCell id="gPVi5fXZko-4Ada1sAHV-2" value="&lt;table border=&quot;1&quot; width=&quot;100%&quot; cellpadding=&quot;4&quot; style=&quot;width: 100% ; height: 100% ; border-collapse: collapse&quot;&gt;&lt;tbody&gt;&lt;tr style=&quot;color: rgb(255 , 255 , 255) ; border: 1px solid rgb(152 , 191 , 33)&quot;&gt;&lt;th align=&quot;left&quot;&gt;能力&lt;/th&gt;&lt;th align=&quot;left&quot;&gt;选型&lt;/th&gt;&lt;/tr&gt;&lt;tr style=&quot;border: 1px solid #98bf21&quot;&gt;&lt;td&gt;开发语言&lt;/td&gt;&lt;td&gt;java（1.8）,LUA、php&lt;/td&gt;&lt;/tr&gt;&lt;tr style=&quot;border: 1px solid rgb(152 , 191 , 33)&quot;&gt;&lt;td&gt;框架&lt;/td&gt;&lt;td&gt;springboot、springcloud&lt;/td&gt;&lt;/tr&gt;&lt;tr style=&quot;border: 1px solid #98bf21&quot;&gt;&lt;td&gt;mq&lt;/td&gt;&lt;td&gt;rabbitmq&lt;/td&gt;&lt;/tr&gt;&lt;tr style=&quot;border: 1px solid rgb(152 , 191 , 33)&quot;&gt;&lt;td&gt;数据库&lt;/td&gt;&lt;td&gt;mysql、redis、mongodb&lt;/td&gt;&lt;/tr&gt;&lt;tr&gt;&lt;td&gt;orm&lt;/td&gt;&lt;td&gt;mybatis-plus&lt;/td&gt;&lt;/tr&gt;&lt;tr&gt;&lt;td&gt;网关&lt;/td&gt;&lt;td&gt;OpenResty&lt;/td&gt;&lt;/tr&gt;&lt;tr&gt;&lt;td&gt;分库分表&lt;/td&gt;&lt;td&gt;shardingjdbc&lt;/td&gt;&lt;/tr&gt;&lt;tr&gt;&lt;td&gt;服务注册中心&lt;/td&gt;&lt;td&gt;consul&lt;/td&gt;&lt;/tr&gt;&lt;tr&gt;&lt;td&gt;任务调度&lt;/td&gt;&lt;td&gt;xxl-job&lt;/td&gt;&lt;/tr&gt;&lt;tr&gt;&lt;td&gt;容器虚拟化&lt;/td&gt;&lt;td&gt;docker&lt;/td&gt;&lt;/tr&gt;&lt;tr&gt;&lt;td&gt;日志收集&lt;/td&gt;&lt;td&gt;elk&lt;/td&gt;&lt;/tr&gt;&lt;tr&gt;&lt;td&gt;灰度发布&lt;/td&gt;&lt;td&gt;discovery&lt;/td&gt;&lt;/tr&gt;&lt;tr&gt;&lt;td&gt;链路跟踪&lt;/td&gt;&lt;td&gt;&lt;br&gt;&lt;/td&gt;&lt;/tr&gt;&lt;tr&gt;&lt;td&gt;应用监控&lt;/td&gt;&lt;td&gt;&lt;br&gt;&lt;/td&gt;&lt;/tr&gt;&lt;tr&gt;&lt;td&gt;熔断&lt;/td&gt;&lt;td&gt;&lt;br&gt;&lt;/td&gt;&lt;/tr&gt;&lt;tr&gt;&lt;td&gt;分布式锁&lt;/td&gt;&lt;td&gt;redis、consul、etcd&lt;/td&gt;&lt;/tr&gt;&lt;tr&gt;&lt;td&gt;分布式id&lt;/td&gt;&lt;td&gt;snowflake+consul&lt;/td&gt;&lt;/tr&gt;&lt;tr&gt;&lt;td&gt;配置中心&lt;/td&gt;&lt;td&gt;consul&lt;/td&gt;&lt;/tr&gt;&lt;tr&gt;&lt;td&gt;&lt;br&gt;&lt;/td&gt;&lt;td&gt;&lt;br&gt;&lt;/td&gt;&lt;/tr&gt;&lt;tr&gt;&lt;td&gt;&lt;br&gt;&lt;/td&gt;&lt;td&gt;&lt;br&gt;&lt;/td&gt;&lt;/tr&gt;&lt;tr&gt;&lt;td&gt;&lt;br&gt;&lt;/td&gt;&lt;td&gt;&lt;br&gt;&lt;/td&gt;&lt;/tr&gt;&lt;tr&gt;&lt;td&gt;&lt;br&gt;&lt;/td&gt;&lt;td&gt;&lt;br&gt;&lt;/td&gt;&lt;/tr&gt;&lt;/tbody&gt;&lt;/table&gt;" style="text;html=1;strokeColor=#82b366;fillColor=#d5e8d4;overflow=fill;rounded=0;dashed=1;align=center;gradientColor=none;shadow=0;glass=0;comic=0;labelBorderColor=#000000;labelBackgroundColor=none;" parent="gPVi5fXZko-4Ada1sAHV-1" vertex="1">
          <mxGeometry x="150" y="30" width="280" height="580" as="geometry" />
        </mxCell>
      </root>
    </mxGraphModel>
  </diagram>
  <diagram name="应用关系" id="9QTGrTdx8H2lbLZMNQXk">
    <mxGraphModel dx="1991" dy="637" grid="1" gridSize="10" guides="1" tooltips="1" connect="1" arrows="1" fold="1" page="1" pageScale="1" pageWidth="827" pageHeight="1169" math="0" shadow="0">
      <root>
        <mxCell id="M4lt1tKEotjjsisDx2_R-0" />
        <mxCell id="M4lt1tKEotjjsisDx2_R-1" parent="M4lt1tKEotjjsisDx2_R-0" />
        <mxCell id="WeSIswc_vyeXcMVUtivo-0" value="开奖" style="rounded=0;whiteSpace=wrap;html=1;shadow=0;glass=0;dashed=1;comic=0;labelBackgroundColor=none;gradientColor=none;align=left;verticalAlign=top;" parent="M4lt1tKEotjjsisDx2_R-1" vertex="1">
          <mxGeometry x="-130" y="480" width="430" height="130" as="geometry" />
        </mxCell>
        <mxCell id="WeSIswc_vyeXcMVUtivo-1" style="edgeStyle=none;rounded=0;orthogonalLoop=1;jettySize=auto;html=1;entryX=1;entryY=0.5;entryDx=0;entryDy=0;" parent="M4lt1tKEotjjsisDx2_R-1" source="WeSIswc_vyeXcMVUtivo-7" target="WeSIswc_vyeXcMVUtivo-8" edge="1">
          <mxGeometry relative="1" as="geometry" />
        </mxCell>
        <mxCell id="WeSIswc_vyeXcMVUtivo-2" value="invoke" style="text;html=1;resizable=0;points=[];align=center;verticalAlign=middle;labelBackgroundColor=#ffffff;" parent="WeSIswc_vyeXcMVUtivo-1" vertex="1" connectable="0">
          <mxGeometry x="-0.4667" y="1" relative="1" as="geometry">
            <mxPoint as="offset" />
          </mxGeometry>
        </mxCell>
        <mxCell id="WeSIswc_vyeXcMVUtivo-3" style="edgeStyle=none;rounded=0;orthogonalLoop=1;jettySize=auto;html=1;entryX=0;entryY=0.5;entryDx=0;entryDy=0;" parent="M4lt1tKEotjjsisDx2_R-1" source="WeSIswc_vyeXcMVUtivo-7" target="WeSIswc_vyeXcMVUtivo-9" edge="1">
          <mxGeometry relative="1" as="geometry" />
        </mxCell>
        <mxCell id="WeSIswc_vyeXcMVUtivo-4" value="invoke" style="text;html=1;resizable=0;points=[];align=center;verticalAlign=middle;labelBackgroundColor=#ffffff;" parent="WeSIswc_vyeXcMVUtivo-3" vertex="1" connectable="0">
          <mxGeometry x="-0.1143" y="-4" relative="1" as="geometry">
            <mxPoint as="offset" />
          </mxGeometry>
        </mxCell>
        <mxCell id="WeSIswc_vyeXcMVUtivo-5" style="edgeStyle=orthogonalEdgeStyle;curved=1;rounded=0;orthogonalLoop=1;jettySize=auto;html=1;dashed=1;exitX=0.5;exitY=1;exitDx=0;exitDy=0;entryX=0.25;entryY=0;entryDx=0;entryDy=0;" parent="M4lt1tKEotjjsisDx2_R-1" source="WeSIswc_vyeXcMVUtivo-7" target="WeSIswc_vyeXcMVUtivo-17" edge="1">
          <mxGeometry relative="1" as="geometry">
            <Array as="points">
              <mxPoint x="330" y="420" />
              <mxPoint x="-82" y="420" />
            </Array>
          </mxGeometry>
        </mxCell>
        <mxCell id="WeSIswc_vyeXcMVUtivo-6" value="发送新增订单到预算将服务" style="text;html=1;resizable=0;points=[];align=center;verticalAlign=middle;labelBackgroundColor=#ffffff;" parent="WeSIswc_vyeXcMVUtivo-5" vertex="1" connectable="0">
          <mxGeometry x="-0.236" y="-1" relative="1" as="geometry">
            <mxPoint as="offset" />
          </mxGeometry>
        </mxCell>
        <mxCell id="WeSIswc_vyeXcMVUtivo-7" value="trade" style="rounded=0;whiteSpace=wrap;html=1;shadow=0;glass=0;dashed=1;comic=0;labelBackgroundColor=none;gradientColor=none;align=left;verticalAlign=top;" parent="M4lt1tKEotjjsisDx2_R-1" vertex="1">
          <mxGeometry x="270" y="160" width="120" height="240" as="geometry" />
        </mxCell>
        <mxCell id="WeSIswc_vyeXcMVUtivo-8" value="platform" style="rounded=0;whiteSpace=wrap;html=1;shadow=0;glass=0;dashed=1;comic=0;labelBackgroundColor=none;gradientColor=none;align=center;" parent="M4lt1tKEotjjsisDx2_R-1" vertex="1">
          <mxGeometry x="-30" y="250" width="120" height="60" as="geometry" />
        </mxCell>
        <mxCell id="WeSIswc_vyeXcMVUtivo-9" value="game" style="rounded=0;whiteSpace=wrap;html=1;shadow=0;glass=0;dashed=1;comic=0;labelBackgroundColor=none;gradientColor=none;align=center;" parent="M4lt1tKEotjjsisDx2_R-1" vertex="1">
          <mxGeometry x="570" y="250" width="120" height="60" as="geometry" />
        </mxCell>
        <mxCell id="WeSIswc_vyeXcMVUtivo-10" style="edgeStyle=none;rounded=0;orthogonalLoop=1;jettySize=auto;html=1;" parent="M4lt1tKEotjjsisDx2_R-1" source="WeSIswc_vyeXcMVUtivo-11" target="WeSIswc_vyeXcMVUtivo-13" edge="1">
          <mxGeometry relative="1" as="geometry" />
        </mxCell>
        <mxCell id="WeSIswc_vyeXcMVUtivo-11" value="数据校验" style="rounded=0;whiteSpace=wrap;html=1;shadow=0;glass=0;dashed=1;comic=0;labelBackgroundColor=none;gradientColor=none;align=center;" parent="M4lt1tKEotjjsisDx2_R-1" vertex="1">
          <mxGeometry x="295" y="180" width="70" height="40" as="geometry" />
        </mxCell>
        <mxCell id="WeSIswc_vyeXcMVUtivo-12" style="edgeStyle=none;rounded=0;orthogonalLoop=1;jettySize=auto;html=1;entryX=0.5;entryY=0;entryDx=0;entryDy=0;" parent="M4lt1tKEotjjsisDx2_R-1" source="WeSIswc_vyeXcMVUtivo-13" target="WeSIswc_vyeXcMVUtivo-14" edge="1">
          <mxGeometry relative="1" as="geometry" />
        </mxCell>
        <mxCell id="WeSIswc_vyeXcMVUtivo-13" value="扣款" style="rounded=0;whiteSpace=wrap;html=1;shadow=0;glass=0;dashed=1;comic=0;labelBackgroundColor=none;gradientColor=none;align=center;" parent="M4lt1tKEotjjsisDx2_R-1" vertex="1">
          <mxGeometry x="295" y="240" width="70" height="40" as="geometry" />
        </mxCell>
        <mxCell id="WeSIswc_vyeXcMVUtivo-14" value="生成注单" style="rounded=0;whiteSpace=wrap;html=1;shadow=0;glass=0;dashed=1;comic=0;labelBackgroundColor=none;gradientColor=none;align=center;" parent="M4lt1tKEotjjsisDx2_R-1" vertex="1">
          <mxGeometry x="295" y="310" width="70" height="40" as="geometry" />
        </mxCell>
        <mxCell id="WeSIswc_vyeXcMVUtivo-15" style="edgeStyle=orthogonalEdgeStyle;rounded=0;orthogonalLoop=1;jettySize=auto;html=1;exitX=0.5;exitY=0;exitDx=0;exitDy=0;entryX=0.5;entryY=0;entryDx=0;entryDy=0;" parent="M4lt1tKEotjjsisDx2_R-1" source="WeSIswc_vyeXcMVUtivo-17" target="WeSIswc_vyeXcMVUtivo-22" edge="1">
          <mxGeometry relative="1" as="geometry">
            <Array as="points">
              <mxPoint x="-65" y="510" />
              <mxPoint x="95" y="510" />
            </Array>
          </mxGeometry>
        </mxCell>
        <mxCell id="WeSIswc_vyeXcMVUtivo-16" value="封盘时间发送预算奖结果" style="text;html=1;resizable=0;points=[];align=center;verticalAlign=middle;labelBackgroundColor=#ffffff;" parent="WeSIswc_vyeXcMVUtivo-15" vertex="1" connectable="0">
          <mxGeometry x="0.2279" relative="1" as="geometry">
            <mxPoint x="-17.5" as="offset" />
          </mxGeometry>
        </mxCell>
        <mxCell id="WeSIswc_vyeXcMVUtivo-17" value="trade-pre-lottery" style="rounded=0;whiteSpace=wrap;html=1;shadow=0;glass=0;dashed=1;comic=0;labelBackgroundColor=none;gradientColor=none;align=center;" parent="M4lt1tKEotjjsisDx2_R-1" vertex="1">
          <mxGeometry x="-100" y="525" width="70" height="40" as="geometry" />
        </mxCell>
        <mxCell id="WeSIswc_vyeXcMVUtivo-18" style="edgeStyle=none;rounded=0;orthogonalLoop=1;jettySize=auto;html=1;entryX=0;entryY=0.5;entryDx=0;entryDy=0;dashed=1;" parent="M4lt1tKEotjjsisDx2_R-1" source="WeSIswc_vyeXcMVUtivo-22" target="WeSIswc_vyeXcMVUtivo-27" edge="1">
          <mxGeometry relative="1" as="geometry" />
        </mxCell>
        <mxCell id="WeSIswc_vyeXcMVUtivo-19" value="开奖时间发送开奖结果" style="text;html=1;resizable=0;points=[];align=center;verticalAlign=middle;labelBackgroundColor=#ffffff;" parent="WeSIswc_vyeXcMVUtivo-18" vertex="1" connectable="0">
          <mxGeometry x="-0.4933" relative="1" as="geometry">
            <mxPoint x="50.5" as="offset" />
          </mxGeometry>
        </mxCell>
        <mxCell id="WeSIswc_vyeXcMVUtivo-20" style="edgeStyle=orthogonalEdgeStyle;rounded=0;orthogonalLoop=1;jettySize=auto;html=1;entryX=0.5;entryY=1;entryDx=0;entryDy=0;exitX=0.5;exitY=1;exitDx=0;exitDy=0;" parent="M4lt1tKEotjjsisDx2_R-1" source="WeSIswc_vyeXcMVUtivo-22" target="WeSIswc_vyeXcMVUtivo-17" edge="1">
          <mxGeometry relative="1" as="geometry" />
        </mxCell>
        <mxCell id="WeSIswc_vyeXcMVUtivo-21" value="开盘发送10组预开奖结果" style="text;html=1;resizable=0;points=[];align=center;verticalAlign=middle;labelBackgroundColor=#ffffff;" parent="WeSIswc_vyeXcMVUtivo-20" vertex="1" connectable="0">
          <mxGeometry x="-0.2133" y="3" relative="1" as="geometry">
            <mxPoint as="offset" />
          </mxGeometry>
        </mxCell>
        <mxCell id="WeSIswc_vyeXcMVUtivo-22" value="lottery" style="rounded=0;whiteSpace=wrap;html=1;shadow=0;glass=0;dashed=1;comic=0;labelBackgroundColor=none;gradientColor=none;align=center;" parent="M4lt1tKEotjjsisDx2_R-1" vertex="1">
          <mxGeometry x="60" y="525" width="70" height="40" as="geometry" />
        </mxCell>
        <mxCell id="WeSIswc_vyeXcMVUtivo-23" style="edgeStyle=none;rounded=0;orthogonalLoop=1;jettySize=auto;html=1;entryX=0.25;entryY=1;entryDx=0;entryDy=0;" parent="M4lt1tKEotjjsisDx2_R-1" source="WeSIswc_vyeXcMVUtivo-27" target="WeSIswc_vyeXcMVUtivo-9" edge="1">
          <mxGeometry relative="1" as="geometry" />
        </mxCell>
        <mxCell id="WeSIswc_vyeXcMVUtivo-24" value="开奖" style="text;html=1;resizable=0;points=[];align=center;verticalAlign=middle;labelBackgroundColor=#ffffff;" parent="WeSIswc_vyeXcMVUtivo-23" vertex="1" connectable="0">
          <mxGeometry x="0.0898" y="1" relative="1" as="geometry">
            <mxPoint as="offset" />
          </mxGeometry>
        </mxCell>
        <mxCell id="WeSIswc_vyeXcMVUtivo-25" value="" style="rounded=0;orthogonalLoop=1;jettySize=auto;html=1;dashed=1;entryX=0;entryY=0.3;entryDx=0;entryDy=0;exitX=1;exitY=0.5;exitDx=0;exitDy=0;" parent="M4lt1tKEotjjsisDx2_R-1" source="WeSIswc_vyeXcMVUtivo-27" target="WeSIswc_vyeXcMVUtivo-41" edge="1">
          <mxGeometry relative="1" as="geometry" />
        </mxCell>
        <mxCell id="WeSIswc_vyeXcMVUtivo-26" value="已结算注单" style="text;html=1;resizable=0;points=[];align=center;verticalAlign=middle;labelBackgroundColor=#ffffff;" parent="WeSIswc_vyeXcMVUtivo-25" vertex="1" connectable="0">
          <mxGeometry x="-0.478" y="1" relative="1" as="geometry">
            <mxPoint x="21" y="-8.5" as="offset" />
          </mxGeometry>
        </mxCell>
        <mxCell id="WeSIswc_vyeXcMVUtivo-27" value="trade-lottery" style="rounded=0;whiteSpace=wrap;html=1;shadow=0;glass=0;dashed=1;comic=0;labelBackgroundColor=none;gradientColor=none;align=center;" parent="M4lt1tKEotjjsisDx2_R-1" vertex="1">
          <mxGeometry x="355" y="525" width="70" height="40" as="geometry" />
        </mxCell>
        <mxCell id="WeSIswc_vyeXcMVUtivo-28" value="" style="edgeStyle=none;rounded=0;orthogonalLoop=1;jettySize=auto;html=1;dashed=1;entryX=0;entryY=0.5;entryDx=0;entryDy=0;" parent="M4lt1tKEotjjsisDx2_R-1" target="WeSIswc_vyeXcMVUtivo-33" edge="1">
          <mxGeometry relative="1" as="geometry">
            <mxPoint x="585.8235294117644" y="525" as="sourcePoint" />
          </mxGeometry>
        </mxCell>
        <mxCell id="WeSIswc_vyeXcMVUtivo-29" value="" style="edgeStyle=none;rounded=0;orthogonalLoop=1;jettySize=auto;html=1;dashed=1;" parent="M4lt1tKEotjjsisDx2_R-1" target="WeSIswc_vyeXcMVUtivo-30" edge="1">
          <mxGeometry relative="1" as="geometry">
            <mxPoint x="598" y="545" as="sourcePoint" />
          </mxGeometry>
        </mxCell>
        <mxCell id="WeSIswc_vyeXcMVUtivo-30" value="trade-order-batch" style="rounded=0;whiteSpace=wrap;html=1;shadow=0;glass=0;dashed=1;comic=0;labelBackgroundColor=none;gradientColor=none;align=center;" parent="M4lt1tKEotjjsisDx2_R-1" vertex="1">
          <mxGeometry x="660" y="525" width="70" height="40" as="geometry" />
        </mxCell>
        <mxCell id="WeSIswc_vyeXcMVUtivo-31" value="" style="html=1;shadow=0;dashed=0;align=center;verticalAlign=middle;shape=mxgraph.arrows2.arrow;dy=0.6;dx=40;direction=south;notch=0;rounded=0;glass=0;comic=0;labelBackgroundColor=none;gradientColor=none;" parent="M4lt1tKEotjjsisDx2_R-1" vertex="1">
          <mxGeometry x="320" y="60" width="20" height="100" as="geometry" />
        </mxCell>
        <mxCell id="WeSIswc_vyeXcMVUtivo-32" value="report" style="rounded=0;whiteSpace=wrap;html=1;shadow=0;glass=0;dashed=1;comic=0;labelBackgroundColor=none;gradientColor=none;align=center;" parent="M4lt1tKEotjjsisDx2_R-1" vertex="1">
          <mxGeometry x="660" y="610" width="70" height="40" as="geometry" />
        </mxCell>
        <mxCell id="WeSIswc_vyeXcMVUtivo-33" value="分红" style="rounded=0;whiteSpace=wrap;html=1;shadow=0;glass=0;dashed=1;comic=0;labelBackgroundColor=none;gradientColor=none;align=center;" parent="M4lt1tKEotjjsisDx2_R-1" vertex="1">
          <mxGeometry x="660" y="440" width="70" height="40" as="geometry" />
        </mxCell>
        <mxCell id="WeSIswc_vyeXcMVUtivo-34" value="user" style="rounded=0;whiteSpace=wrap;html=1;shadow=0;glass=0;dashed=1;comic=0;labelBackgroundColor=none;gradientColor=none;align=center;" parent="M4lt1tKEotjjsisDx2_R-1" vertex="1">
          <mxGeometry x="-30" y="140" width="120" height="60" as="geometry" />
        </mxCell>
        <mxCell id="WeSIswc_vyeXcMVUtivo-35" style="edgeStyle=none;rounded=0;orthogonalLoop=1;jettySize=auto;html=1;entryX=1;entryY=0.5;entryDx=0;entryDy=0;exitX=0;exitY=0.5;exitDx=0;exitDy=0;" parent="M4lt1tKEotjjsisDx2_R-1" source="WeSIswc_vyeXcMVUtivo-7" target="WeSIswc_vyeXcMVUtivo-34" edge="1">
          <mxGeometry relative="1" as="geometry">
            <mxPoint x="260" y="270" as="sourcePoint" />
            <mxPoint x="100" y="290" as="targetPoint" />
          </mxGeometry>
        </mxCell>
        <mxCell id="WeSIswc_vyeXcMVUtivo-36" value="invoke" style="text;html=1;resizable=0;points=[];align=center;verticalAlign=middle;labelBackgroundColor=#ffffff;" parent="WeSIswc_vyeXcMVUtivo-35" vertex="1" connectable="0">
          <mxGeometry x="-0.4667" y="1" relative="1" as="geometry">
            <mxPoint as="offset" />
          </mxGeometry>
        </mxCell>
        <mxCell id="WeSIswc_vyeXcMVUtivo-37" style="edgeStyle=orthogonalEdgeStyle;curved=1;rounded=0;orthogonalLoop=1;jettySize=auto;html=1;entryX=0;entryY=0.792;entryDx=0;entryDy=0;dashed=1;entryPerimeter=0;" parent="M4lt1tKEotjjsisDx2_R-1" target="WeSIswc_vyeXcMVUtivo-7" edge="1">
          <mxGeometry relative="1" as="geometry">
            <mxPoint x="270" y="400" as="sourcePoint" />
            <mxPoint x="24.758620689655118" y="539.9310344827586" as="targetPoint" />
            <Array as="points">
              <mxPoint x="140" y="400" />
              <mxPoint x="140" y="350" />
            </Array>
          </mxGeometry>
        </mxCell>
        <mxCell id="WeSIswc_vyeXcMVUtivo-38" value="订单持久化" style="text;html=1;resizable=0;points=[];align=center;verticalAlign=middle;labelBackgroundColor=#ffffff;" parent="WeSIswc_vyeXcMVUtivo-37" vertex="1" connectable="0">
          <mxGeometry x="-0.236" y="-1" relative="1" as="geometry">
            <mxPoint x="-36" y="-29.5" as="offset" />
          </mxGeometry>
        </mxCell>
        <mxCell id="WeSIswc_vyeXcMVUtivo-39" value="用户下单" style="text;html=1;resizable=0;autosize=1;align=center;verticalAlign=middle;points=[];fillColor=none;strokeColor=none;rounded=0;" parent="M4lt1tKEotjjsisDx2_R-1" vertex="1">
          <mxGeometry x="340" y="60.24137931034488" width="60" height="20" as="geometry" />
        </mxCell>
        <mxCell id="WeSIswc_vyeXcMVUtivo-40" value="" style="edgeStyle=none;rounded=0;orthogonalLoop=1;jettySize=auto;html=1;dashed=1;entryX=0;entryY=0.5;entryDx=0;entryDy=0;" parent="M4lt1tKEotjjsisDx2_R-1" source="WeSIswc_vyeXcMVUtivo-41" target="WeSIswc_vyeXcMVUtivo-32" edge="1">
          <mxGeometry relative="1" as="geometry" />
        </mxCell>
        <mxCell id="WeSIswc_vyeXcMVUtivo-41" value="交换机" style="shape=cylinder;whiteSpace=wrap;html=1;boundedLbl=1;backgroundOutline=1;" parent="M4lt1tKEotjjsisDx2_R-1" vertex="1">
          <mxGeometry x="530" y="500" width="60" height="80" as="geometry" />
        </mxCell>
        <mxCell id="WeSIswc_vyeXcMVUtivo-42" value="" style="rounded=0;orthogonalLoop=1;jettySize=auto;html=1;dashed=1;exitX=1;exitY=0.5;exitDx=0;exitDy=0;entryX=0.01;entryY=0.771;entryDx=0;entryDy=0;entryPerimeter=0;" parent="M4lt1tKEotjjsisDx2_R-1" source="WeSIswc_vyeXcMVUtivo-27" target="WeSIswc_vyeXcMVUtivo-41" edge="1">
          <mxGeometry relative="1" as="geometry">
            <mxPoint x="458" y="555.1034482758621" as="sourcePoint" />
            <mxPoint x="510" y="560" as="targetPoint" />
          </mxGeometry>
        </mxCell>
        <mxCell id="WeSIswc_vyeXcMVUtivo-43" value="已中奖注单" style="text;html=1;resizable=0;points=[];align=center;verticalAlign=middle;labelBackgroundColor=#ffffff;" parent="WeSIswc_vyeXcMVUtivo-42" vertex="1" connectable="0">
          <mxGeometry x="-0.2323" y="-1" relative="1" as="geometry">
            <mxPoint x="8.5" y="-2.5" as="offset" />
          </mxGeometry>
        </mxCell>
      </root>
    </mxGraphModel>
  </diagram>
  <diagram name="应用间关系-演义版" id="uPYM098INWH-QnFEwW4X">
    <mxGraphModel dx="1164" dy="637" grid="1" gridSize="10" guides="1" tooltips="1" connect="1" arrows="1" fold="1" page="1" pageScale="1" pageWidth="827" pageHeight="1169" math="0" shadow="0">
      <root>
        <mxCell id="N4ZQED3STGnvqZw9WOgB-0" />
        <mxCell id="N4ZQED3STGnvqZw9WOgB-1" parent="N4ZQED3STGnvqZw9WOgB-0" />
        <mxCell id="N4ZQED3STGnvqZw9WOgB-6" value="meta" style="rounded=0;whiteSpace=wrap;html=1;shadow=0;glass=0;dashed=1;comic=0;labelBackgroundColor=none;gradientColor=none;align=left;verticalAlign=top;" parent="N4ZQED3STGnvqZw9WOgB-1" vertex="1">
          <mxGeometry x="80" y="100" width="160" height="340" as="geometry" />
        </mxCell>
        <mxCell id="N4ZQED3STGnvqZw9WOgB-7" style="edgeStyle=none;rounded=0;orthogonalLoop=1;jettySize=auto;html=1;entryX=1;entryY=0.5;entryDx=0;entryDy=0;dashed=1;" parent="N4ZQED3STGnvqZw9WOgB-1" source="N4ZQED3STGnvqZw9WOgB-2" target="N4ZQED3STGnvqZw9WOgB-6" edge="1">
          <mxGeometry relative="1" as="geometry" />
        </mxCell>
        <mxCell id="N4ZQED3STGnvqZw9WOgB-9" style="edgeStyle=none;rounded=0;orthogonalLoop=1;jettySize=auto;html=1;entryX=0.5;entryY=0;entryDx=0;entryDy=0;dashed=1;" parent="N4ZQED3STGnvqZw9WOgB-1" source="N4ZQED3STGnvqZw9WOgB-2" target="N4ZQED3STGnvqZw9WOgB-8" edge="1">
          <mxGeometry relative="1" as="geometry" />
        </mxCell>
        <mxCell id="N4ZQED3STGnvqZw9WOgB-10" value="save" style="text;html=1;resizable=0;points=[];align=center;verticalAlign=middle;labelBackgroundColor=#ffffff;" parent="N4ZQED3STGnvqZw9WOgB-9" vertex="1" connectable="0">
          <mxGeometry x="-0.2364" y="2" relative="1" as="geometry">
            <mxPoint as="offset" />
          </mxGeometry>
        </mxCell>
        <mxCell id="N4ZQED3STGnvqZw9WOgB-2" value="订单" style="rounded=0;whiteSpace=wrap;html=1;shadow=0;glass=0;dashed=1;comic=0;labelBackgroundColor=none;gradientColor=none;align=center;" parent="N4ZQED3STGnvqZw9WOgB-1" vertex="1">
          <mxGeometry x="330" y="240" width="120" height="60" as="geometry" />
        </mxCell>
        <mxCell id="N4ZQED3STGnvqZw9WOgB-3" value="现金管理" style="rounded=0;whiteSpace=wrap;html=1;shadow=0;glass=0;dashed=1;comic=0;labelBackgroundColor=none;gradientColor=none;align=center;" parent="N4ZQED3STGnvqZw9WOgB-1" vertex="1">
          <mxGeometry x="100" y="310" width="120" height="40" as="geometry" />
        </mxCell>
        <mxCell id="N4ZQED3STGnvqZw9WOgB-4" value="账户" style="rounded=0;whiteSpace=wrap;html=1;shadow=0;glass=0;dashed=1;comic=0;labelBackgroundColor=none;gradientColor=none;align=center;" parent="N4ZQED3STGnvqZw9WOgB-1" vertex="1">
          <mxGeometry x="100" y="220" width="120" height="40" as="geometry" />
        </mxCell>
        <mxCell id="N4ZQED3STGnvqZw9WOgB-5" value="站点" style="rounded=0;whiteSpace=wrap;html=1;shadow=0;glass=0;dashed=1;comic=0;labelBackgroundColor=none;gradientColor=none;align=center;" parent="N4ZQED3STGnvqZw9WOgB-1" vertex="1">
          <mxGeometry x="100" y="130" width="120" height="40" as="geometry" />
        </mxCell>
        <mxCell id="N4ZQED3STGnvqZw9WOgB-8" value="订单" style="shape=cylinder;whiteSpace=wrap;html=1;boundedLbl=1;backgroundOutline=1;rounded=0;shadow=0;glass=0;dashed=1;comic=0;labelBackgroundColor=none;gradientColor=none;align=center;" parent="N4ZQED3STGnvqZw9WOgB-1" vertex="1">
          <mxGeometry x="360" y="380" width="60" height="80" as="geometry" />
        </mxCell>
        <mxCell id="N4ZQED3STGnvqZw9WOgB-14" style="edgeStyle=none;rounded=0;orthogonalLoop=1;jettySize=auto;html=1;dashed=1;" parent="N4ZQED3STGnvqZw9WOgB-1" source="N4ZQED3STGnvqZw9WOgB-11" target="N4ZQED3STGnvqZw9WOgB-13" edge="1">
          <mxGeometry relative="1" as="geometry" />
        </mxCell>
        <mxCell id="N4ZQED3STGnvqZw9WOgB-15" value="查询游戏任务" style="text;html=1;resizable=0;points=[];align=center;verticalAlign=middle;labelBackgroundColor=#ffffff;" parent="N4ZQED3STGnvqZw9WOgB-14" vertex="1" connectable="0">
          <mxGeometry x="0.3485" y="-2" relative="1" as="geometry">
            <mxPoint as="offset" />
          </mxGeometry>
        </mxCell>
        <mxCell id="N4ZQED3STGnvqZw9WOgB-16" style="edgeStyle=none;rounded=0;orthogonalLoop=1;jettySize=auto;html=1;entryX=0;entryY=0.5;entryDx=0;entryDy=0;dashed=1;" parent="N4ZQED3STGnvqZw9WOgB-1" source="N4ZQED3STGnvqZw9WOgB-11" target="N4ZQED3STGnvqZw9WOgB-8" edge="1">
          <mxGeometry relative="1" as="geometry" />
        </mxCell>
        <mxCell id="N4ZQED3STGnvqZw9WOgB-17" value="查询订单" style="text;html=1;resizable=0;points=[];align=center;verticalAlign=middle;labelBackgroundColor=#ffffff;" parent="N4ZQED3STGnvqZw9WOgB-16" vertex="1" connectable="0">
          <mxGeometry x="0.2325" y="-4" relative="1" as="geometry">
            <mxPoint as="offset" />
          </mxGeometry>
        </mxCell>
        <mxCell id="N4ZQED3STGnvqZw9WOgB-19" style="edgeStyle=none;rounded=0;orthogonalLoop=1;jettySize=auto;html=1;entryX=0;entryY=0.5;entryDx=0;entryDy=0;dashed=1;" parent="N4ZQED3STGnvqZw9WOgB-1" source="N4ZQED3STGnvqZw9WOgB-11" target="N4ZQED3STGnvqZw9WOgB-18" edge="1">
          <mxGeometry relative="1" as="geometry" />
        </mxCell>
        <mxCell id="N4ZQED3STGnvqZw9WOgB-20" value="save" style="text;html=1;resizable=0;points=[];align=center;verticalAlign=middle;labelBackgroundColor=#ffffff;" parent="N4ZQED3STGnvqZw9WOgB-19" vertex="1" connectable="0">
          <mxGeometry x="0.2615" y="-2" relative="1" as="geometry">
            <mxPoint as="offset" />
          </mxGeometry>
        </mxCell>
        <mxCell id="N4ZQED3STGnvqZw9WOgB-28" style="edgeStyle=orthogonalEdgeStyle;curved=1;rounded=0;orthogonalLoop=1;jettySize=auto;html=1;entryX=0.25;entryY=1;entryDx=0;entryDy=0;dashed=1;exitX=0.75;exitY=1;exitDx=0;exitDy=0;" parent="N4ZQED3STGnvqZw9WOgB-1" source="N4ZQED3STGnvqZw9WOgB-11" target="N4ZQED3STGnvqZw9WOgB-21" edge="1">
          <mxGeometry relative="1" as="geometry" />
        </mxCell>
        <mxCell id="N4ZQED3STGnvqZw9WOgB-29" value="结算通知" style="text;html=1;resizable=0;points=[];align=center;verticalAlign=middle;labelBackgroundColor=#ffffff;" parent="N4ZQED3STGnvqZw9WOgB-28" vertex="1" connectable="0">
          <mxGeometry x="-0.0857" y="1" relative="1" as="geometry">
            <mxPoint as="offset" />
          </mxGeometry>
        </mxCell>
        <mxCell id="N4ZQED3STGnvqZw9WOgB-11" value="开奖（定时）" style="rounded=0;whiteSpace=wrap;html=1;shadow=0;glass=0;dashed=1;comic=0;labelBackgroundColor=none;gradientColor=none;align=center;" parent="N4ZQED3STGnvqZw9WOgB-1" vertex="1">
          <mxGeometry x="100" y="540" width="120" height="60" as="geometry" />
        </mxCell>
        <mxCell id="N4ZQED3STGnvqZw9WOgB-13" value="游戏" style="rounded=0;whiteSpace=wrap;html=1;shadow=0;glass=0;dashed=1;comic=0;labelBackgroundColor=none;gradientColor=none;align=center;" parent="N4ZQED3STGnvqZw9WOgB-1" vertex="1">
          <mxGeometry x="100" y="380" width="120" height="40" as="geometry" />
        </mxCell>
        <mxCell id="N4ZQED3STGnvqZw9WOgB-18" value="开奖结果" style="shape=cylinder;whiteSpace=wrap;html=1;boundedLbl=1;backgroundOutline=1;rounded=0;shadow=0;glass=0;dashed=1;comic=0;labelBackgroundColor=none;gradientColor=none;align=center;" parent="N4ZQED3STGnvqZw9WOgB-1" vertex="1">
          <mxGeometry x="360" y="530" width="60" height="80" as="geometry" />
        </mxCell>
        <mxCell id="N4ZQED3STGnvqZw9WOgB-22" style="edgeStyle=none;rounded=0;orthogonalLoop=1;jettySize=auto;html=1;entryX=1;entryY=0.5;entryDx=0;entryDy=0;dashed=1;" parent="N4ZQED3STGnvqZw9WOgB-1" source="N4ZQED3STGnvqZw9WOgB-21" target="N4ZQED3STGnvqZw9WOgB-8" edge="1">
          <mxGeometry relative="1" as="geometry" />
        </mxCell>
        <mxCell id="N4ZQED3STGnvqZw9WOgB-23" value="查询、写入结算金额" style="text;html=1;resizable=0;points=[];align=center;verticalAlign=middle;labelBackgroundColor=#ffffff;" parent="N4ZQED3STGnvqZw9WOgB-22" vertex="1" connectable="0">
          <mxGeometry x="0.1516" relative="1" as="geometry">
            <mxPoint as="offset" />
          </mxGeometry>
        </mxCell>
        <mxCell id="N4ZQED3STGnvqZw9WOgB-24" style="edgeStyle=none;rounded=0;orthogonalLoop=1;jettySize=auto;html=1;dashed=1;" parent="N4ZQED3STGnvqZw9WOgB-1" source="N4ZQED3STGnvqZw9WOgB-21" target="N4ZQED3STGnvqZw9WOgB-18" edge="1">
          <mxGeometry relative="1" as="geometry" />
        </mxCell>
        <mxCell id="N4ZQED3STGnvqZw9WOgB-25" value="查询" style="text;html=1;resizable=0;points=[];align=center;verticalAlign=middle;labelBackgroundColor=#ffffff;" parent="N4ZQED3STGnvqZw9WOgB-24" vertex="1" connectable="0">
          <mxGeometry x="-0.3667" y="-1" relative="1" as="geometry">
            <mxPoint as="offset" />
          </mxGeometry>
        </mxCell>
        <mxCell id="N4ZQED3STGnvqZw9WOgB-26" style="edgeStyle=orthogonalEdgeStyle;rounded=0;orthogonalLoop=1;jettySize=auto;html=1;entryX=0;entryY=0.5;entryDx=0;entryDy=0;dashed=1;curved=1;exitX=0.5;exitY=1;exitDx=0;exitDy=0;" parent="N4ZQED3STGnvqZw9WOgB-1" source="N4ZQED3STGnvqZw9WOgB-21" target="N4ZQED3STGnvqZw9WOgB-3" edge="1">
          <mxGeometry relative="1" as="geometry">
            <Array as="points">
              <mxPoint x="600" y="720" />
              <mxPoint x="20" y="720" />
              <mxPoint x="20" y="350" />
              <mxPoint x="100" y="350" />
            </Array>
          </mxGeometry>
        </mxCell>
        <mxCell id="N4ZQED3STGnvqZw9WOgB-27" value="变更金额变化" style="text;html=1;resizable=0;points=[];align=center;verticalAlign=middle;labelBackgroundColor=#ffffff;" parent="N4ZQED3STGnvqZw9WOgB-26" vertex="1" connectable="0">
          <mxGeometry x="-0.1316" y="-4" relative="1" as="geometry">
            <mxPoint as="offset" />
          </mxGeometry>
        </mxCell>
        <mxCell id="N4ZQED3STGnvqZw9WOgB-21" value="结算" style="rounded=0;whiteSpace=wrap;html=1;shadow=0;glass=0;dashed=1;comic=0;labelBackgroundColor=none;gradientColor=none;align=center;" parent="N4ZQED3STGnvqZw9WOgB-1" vertex="1">
          <mxGeometry x="540" y="540" width="120" height="60" as="geometry" />
        </mxCell>
      </root>
    </mxGraphModel>
  </diagram>
  <diagram name="主体流程" id="AQ7223fqefCUbT99pXXG">
    <mxGraphModel dx="1164" dy="637" grid="1" gridSize="10" guides="1" tooltips="1" connect="1" arrows="1" fold="1" page="1" pageScale="1" pageWidth="827" pageHeight="1169" math="0" shadow="0">
      <root>
        <mxCell id="6Ch267rhyX3_cZoAPz_z-0" />
        <mxCell id="6Ch267rhyX3_cZoAPz_z-1" parent="6Ch267rhyX3_cZoAPz_z-0" />
        <mxCell id="6Ch267rhyX3_cZoAPz_z-5" style="edgeStyle=orthogonalEdgeStyle;rounded=0;orthogonalLoop=1;jettySize=auto;html=1;" parent="6Ch267rhyX3_cZoAPz_z-1" source="6Ch267rhyX3_cZoAPz_z-2" target="6Ch267rhyX3_cZoAPz_z-4" edge="1">
          <mxGeometry relative="1" as="geometry" />
        </mxCell>
        <mxCell id="6Ch267rhyX3_cZoAPz_z-6" value="mq：通知派彩" style="text;html=1;resizable=0;points=[];align=center;verticalAlign=middle;labelBackgroundColor=#ffffff;" parent="6Ch267rhyX3_cZoAPz_z-5" vertex="1" connectable="0">
          <mxGeometry x="-0.2667" y="1" relative="1" as="geometry">
            <mxPoint as="offset" />
          </mxGeometry>
        </mxCell>
        <mxCell id="6Ch267rhyX3_cZoAPz_z-2" value="game" style="rounded=1;whiteSpace=wrap;html=1;" parent="6Ch267rhyX3_cZoAPz_z-1" vertex="1">
          <mxGeometry x="100" y="230" width="120" height="60" as="geometry" />
        </mxCell>
        <mxCell id="6Ch267rhyX3_cZoAPz_z-3" value="1、游戏元数据&lt;br&gt;2、生成游戏期数&lt;br&gt;3、生成期数开奖结果" style="shape=callout;whiteSpace=wrap;html=1;perimeter=calloutPerimeter;position2=0.96;align=left;" parent="6Ch267rhyX3_cZoAPz_z-1" vertex="1">
          <mxGeometry x="10" y="160" width="120" height="80" as="geometry" />
        </mxCell>
        <mxCell id="6Ch267rhyX3_cZoAPz_z-15" style="edgeStyle=orthogonalEdgeStyle;rounded=0;orthogonalLoop=1;jettySize=auto;html=1;entryX=1;entryY=0.5;entryDx=0;entryDy=0;curved=1;exitX=0.5;exitY=1;exitDx=0;exitDy=0;" parent="6Ch267rhyX3_cZoAPz_z-1" source="6Ch267rhyX3_cZoAPz_z-4" target="6Ch267rhyX3_cZoAPz_z-11" edge="1">
          <mxGeometry relative="1" as="geometry" />
        </mxCell>
        <mxCell id="6Ch267rhyX3_cZoAPz_z-16" value="mq：推送订单信息" style="text;html=1;resizable=0;points=[];align=center;verticalAlign=middle;labelBackgroundColor=#ffffff;" parent="6Ch267rhyX3_cZoAPz_z-15" vertex="1" connectable="0">
          <mxGeometry x="-0.4328" y="-44" relative="1" as="geometry">
            <mxPoint as="offset" />
          </mxGeometry>
        </mxCell>
        <mxCell id="6Ch267rhyX3_cZoAPz_z-4" value="trad" style="rounded=1;whiteSpace=wrap;html=1;" parent="6Ch267rhyX3_cZoAPz_z-1" vertex="1">
          <mxGeometry x="480" y="230" width="120" height="60" as="geometry" />
        </mxCell>
        <mxCell id="6Ch267rhyX3_cZoAPz_z-9" style="edgeStyle=orthogonalEdgeStyle;rounded=0;orthogonalLoop=1;jettySize=auto;html=1;entryX=0.5;entryY=1;entryDx=0;entryDy=0;" parent="6Ch267rhyX3_cZoAPz_z-1" source="6Ch267rhyX3_cZoAPz_z-7" target="6Ch267rhyX3_cZoAPz_z-2" edge="1">
          <mxGeometry relative="1" as="geometry" />
        </mxCell>
        <mxCell id="6Ch267rhyX3_cZoAPz_z-10" value="mq：推送期数开奖结果" style="text;html=1;resizable=0;points=[];align=center;verticalAlign=middle;labelBackgroundColor=#ffffff;" parent="6Ch267rhyX3_cZoAPz_z-9" vertex="1" connectable="0">
          <mxGeometry x="-0.22" y="1" relative="1" as="geometry">
            <mxPoint x="1" y="-21" as="offset" />
          </mxGeometry>
        </mxCell>
        <mxCell id="6Ch267rhyX3_cZoAPz_z-7" value="开奖" style="rounded=1;whiteSpace=wrap;html=1;" parent="6Ch267rhyX3_cZoAPz_z-1" vertex="1">
          <mxGeometry x="100" y="390" width="120" height="60" as="geometry" />
        </mxCell>
        <mxCell id="6Ch267rhyX3_cZoAPz_z-8" value="1、定时开奖&lt;br&gt;2、没有预开奖则要随机生成开奖结果" style="shape=callout;whiteSpace=wrap;html=1;perimeter=calloutPerimeter;position2=1;align=left;" parent="6Ch267rhyX3_cZoAPz_z-1" vertex="1">
          <mxGeometry x="10" y="340" width="120" height="80" as="geometry" />
        </mxCell>
        <mxCell id="6Ch267rhyX3_cZoAPz_z-12" style="edgeStyle=orthogonalEdgeStyle;rounded=0;orthogonalLoop=1;jettySize=auto;html=1;entryX=0.5;entryY=1;entryDx=0;entryDy=0;" parent="6Ch267rhyX3_cZoAPz_z-1" source="6Ch267rhyX3_cZoAPz_z-11" target="6Ch267rhyX3_cZoAPz_z-7" edge="1">
          <mxGeometry relative="1" as="geometry" />
        </mxCell>
        <mxCell id="6Ch267rhyX3_cZoAPz_z-13" value="mq：推送开奖结果" style="text;html=1;resizable=0;points=[];align=center;verticalAlign=middle;labelBackgroundColor=#ffffff;" parent="6Ch267rhyX3_cZoAPz_z-12" vertex="1" connectable="0">
          <mxGeometry x="-0.28" y="-1" relative="1" as="geometry">
            <mxPoint x="-1" y="-34" as="offset" />
          </mxGeometry>
        </mxCell>
        <mxCell id="6Ch267rhyX3_cZoAPz_z-11" value="预开奖" style="rounded=1;whiteSpace=wrap;html=1;" parent="6Ch267rhyX3_cZoAPz_z-1" vertex="1">
          <mxGeometry x="100" y="550" width="120" height="60" as="geometry" />
        </mxCell>
        <mxCell id="6Ch267rhyX3_cZoAPz_z-14" value="1、定时开奖&lt;br&gt;2、挑出合理的开奖结果" style="shape=callout;whiteSpace=wrap;html=1;perimeter=calloutPerimeter;position2=1;align=left;" parent="6Ch267rhyX3_cZoAPz_z-1" vertex="1">
          <mxGeometry x="10" y="500" width="120" height="80" as="geometry" />
        </mxCell>
        <mxCell id="6Ch267rhyX3_cZoAPz_z-17" value="" style="html=1;shadow=0;dashed=0;align=center;verticalAlign=middle;shape=mxgraph.arrows2.arrow;dy=0.8;dx=25;direction=south;notch=0;" parent="6Ch267rhyX3_cZoAPz_z-1" vertex="1">
          <mxGeometry x="530" y="130" width="20" height="100" as="geometry" />
        </mxCell>
      </root>
    </mxGraphModel>
  </diagram>
  <diagram name="功能-游戏" id="rjuIaNbrsznmRz65rqYw">
    <mxGraphModel dx="1164" dy="637" grid="1" gridSize="10" guides="1" tooltips="1" connect="1" arrows="1" fold="1" page="1" pageScale="1" pageWidth="827" pageHeight="1169" math="0" shadow="0">
      <root>
        <mxCell id="d9_84bP-1R9RpkmIeYjc-0" />
        <mxCell id="d9_84bP-1R9RpkmIeYjc-1" parent="d9_84bP-1R9RpkmIeYjc-0" />
        <mxCell id="d9_84bP-1R9RpkmIeYjc-2" value="游戏" style="rounded=0;whiteSpace=wrap;html=1;shadow=0;glass=0;dashed=1;comic=0;labelBackgroundColor=none;gradientColor=none;align=center;verticalAlign=top;" parent="d9_84bP-1R9RpkmIeYjc-1" vertex="1">
          <mxGeometry x="170" y="120" width="340" height="420" as="geometry" />
        </mxCell>
        <mxCell id="JQK_SpYRuC6Vi8lI2nIu-0" value="游戏类型" style="rounded=0;whiteSpace=wrap;html=1;shadow=0;glass=0;dashed=1;comic=0;labelBackgroundColor=none;gradientColor=none;align=center;" parent="d9_84bP-1R9RpkmIeYjc-1" vertex="1">
          <mxGeometry x="210" y="170" width="120" height="60" as="geometry" />
        </mxCell>
        <mxCell id="JQK_SpYRuC6Vi8lI2nIu-1" value="游戏管理" style="rounded=0;whiteSpace=wrap;html=1;shadow=0;glass=0;dashed=1;comic=0;labelBackgroundColor=none;gradientColor=none;align=center;" parent="d9_84bP-1R9RpkmIeYjc-1" vertex="1">
          <mxGeometry x="353" y="170" width="120" height="60" as="geometry" />
        </mxCell>
        <mxCell id="JQK_SpYRuC6Vi8lI2nIu-2" value="游戏分类" style="rounded=0;whiteSpace=wrap;html=1;shadow=0;glass=0;dashed=1;comic=0;labelBackgroundColor=none;gradientColor=none;align=center;" parent="d9_84bP-1R9RpkmIeYjc-1" vertex="1">
          <mxGeometry x="210" y="240" width="120" height="60" as="geometry" />
        </mxCell>
        <mxCell id="JQK_SpYRuC6Vi8lI2nIu-3" value="游戏详情" style="rounded=0;whiteSpace=wrap;html=1;shadow=0;glass=0;dashed=1;comic=0;labelBackgroundColor=none;gradientColor=none;align=center;" parent="d9_84bP-1R9RpkmIeYjc-1" vertex="1">
          <mxGeometry x="353" y="240" width="120" height="60" as="geometry" />
        </mxCell>
        <mxCell id="JQK_SpYRuC6Vi8lI2nIu-4" value="标准期号" style="rounded=0;whiteSpace=wrap;html=1;shadow=0;glass=0;dashed=1;comic=0;labelBackgroundColor=none;gradientColor=none;align=center;" parent="d9_84bP-1R9RpkmIeYjc-1" vertex="1">
          <mxGeometry x="210" y="310" width="120" height="60" as="geometry" />
        </mxCell>
        <mxCell id="JQK_SpYRuC6Vi8lI2nIu-5" value="游戏期号" style="rounded=0;whiteSpace=wrap;html=1;shadow=0;glass=0;dashed=1;comic=0;labelBackgroundColor=none;gradientColor=none;align=center;" parent="d9_84bP-1R9RpkmIeYjc-1" vertex="1">
          <mxGeometry x="353" y="310" width="120" height="60" as="geometry" />
        </mxCell>
        <mxCell id="JQK_SpYRuC6Vi8lI2nIu-6" value="游戏期数" style="rounded=0;whiteSpace=wrap;html=1;shadow=0;glass=0;dashed=1;comic=0;labelBackgroundColor=none;gradientColor=none;align=center;" parent="d9_84bP-1R9RpkmIeYjc-1" vertex="1">
          <mxGeometry x="210" y="380" width="120" height="60" as="geometry" />
        </mxCell>
        <mxCell id="JQK_SpYRuC6Vi8lI2nIu-7" value="赔率" style="rounded=0;whiteSpace=wrap;html=1;shadow=0;glass=0;dashed=1;comic=0;labelBackgroundColor=none;gradientColor=none;align=center;" parent="d9_84bP-1R9RpkmIeYjc-1" vertex="1">
          <mxGeometry x="353" y="380" width="120" height="60" as="geometry" />
        </mxCell>
        <mxCell id="JQK_SpYRuC6Vi8lI2nIu-8" value="游戏杀率" style="rounded=0;whiteSpace=wrap;html=1;shadow=0;glass=0;dashed=1;comic=0;labelBackgroundColor=none;gradientColor=none;align=center;" parent="d9_84bP-1R9RpkmIeYjc-1" vertex="1">
          <mxGeometry x="210" y="450" width="120" height="60" as="geometry" />
        </mxCell>
      </root>
    </mxGraphModel>
  </diagram>
  <diagram name="逻辑-预算奖" id="JBNoN4rt0XabqJ7g1zqe">
    <mxGraphModel dx="1991" dy="1806" grid="1" gridSize="10" guides="1" tooltips="1" connect="1" arrows="1" fold="1" page="1" pageScale="1" pageWidth="827" pageHeight="1169" math="0" shadow="0">
      <root>
        <mxCell id="xXxE2y6vjH0ljf1TIgJJ-0" />
        <mxCell id="xXxE2y6vjH0ljf1TIgJJ-1" parent="xXxE2y6vjH0ljf1TIgJJ-0" />
        <mxCell id="xXxE2y6vjH0ljf1TIgJJ-5" style="edgeStyle=orthogonalEdgeStyle;rounded=0;orthogonalLoop=1;jettySize=auto;html=1;" parent="xXxE2y6vjH0ljf1TIgJJ-1" source="xXxE2y6vjH0ljf1TIgJJ-3" target="xXxE2y6vjH0ljf1TIgJJ-4" edge="1">
          <mxGeometry relative="1" as="geometry" />
        </mxCell>
        <mxCell id="BCuOl30nhSEFEeJvfYAj-0" value="订单数据" style="text;html=1;resizable=0;points=[];align=center;verticalAlign=middle;labelBackgroundColor=#ffffff;" parent="xXxE2y6vjH0ljf1TIgJJ-5" vertex="1" connectable="0">
          <mxGeometry x="-0.0917" y="3" relative="1" as="geometry">
            <mxPoint as="offset" />
          </mxGeometry>
        </mxCell>
        <mxCell id="BCuOl30nhSEFEeJvfYAj-1" style="edgeStyle=orthogonalEdgeStyle;rounded=0;orthogonalLoop=1;jettySize=auto;html=1;entryX=0;entryY=0.75;entryDx=0;entryDy=0;curved=1;exitX=1;exitY=0.7;exitDx=0;exitDy=0;" parent="xXxE2y6vjH0ljf1TIgJJ-1" source="xXxE2y6vjH0ljf1TIgJJ-3" target="xXxE2y6vjH0ljf1TIgJJ-4" edge="1">
          <mxGeometry relative="1" as="geometry" />
        </mxCell>
        <mxCell id="BCuOl30nhSEFEeJvfYAj-2" value="预开奖结果" style="text;html=1;resizable=0;points=[];align=center;verticalAlign=middle;labelBackgroundColor=#ffffff;" parent="BCuOl30nhSEFEeJvfYAj-1" vertex="1" connectable="0">
          <mxGeometry x="0.0041" y="10" relative="1" as="geometry">
            <mxPoint x="-10" y="10" as="offset" />
          </mxGeometry>
        </mxCell>
        <mxCell id="xXxE2y6vjH0ljf1TIgJJ-3" value="mq" style="shape=cylinder;whiteSpace=wrap;html=1;boundedLbl=1;backgroundOutline=1;" parent="xXxE2y6vjH0ljf1TIgJJ-1" vertex="1">
          <mxGeometry x="10" y="140" width="60" height="80" as="geometry" />
        </mxCell>
        <mxCell id="xXxE2y6vjH0ljf1TIgJJ-8" style="edgeStyle=orthogonalEdgeStyle;rounded=0;orthogonalLoop=1;jettySize=auto;html=1;entryX=0.5;entryY=0;entryDx=0;entryDy=0;curved=1;exitX=0.5;exitY=0;exitDx=0;exitDy=0;" parent="xXxE2y6vjH0ljf1TIgJJ-1" source="xXxE2y6vjH0ljf1TIgJJ-4" target="xXxE2y6vjH0ljf1TIgJJ-3" edge="1">
          <mxGeometry relative="1" as="geometry">
            <Array as="points">
              <mxPoint x="370" y="110" />
              <mxPoint x="40" y="110" />
            </Array>
          </mxGeometry>
        </mxCell>
        <mxCell id="xXxE2y6vjH0ljf1TIgJJ-9" value="投递延时队列" style="text;html=1;resizable=0;points=[];align=center;verticalAlign=middle;labelBackgroundColor=#ffffff;" parent="xXxE2y6vjH0ljf1TIgJJ-8" vertex="1" connectable="0">
          <mxGeometry x="0.12" relative="1" as="geometry">
            <mxPoint as="offset" />
          </mxGeometry>
        </mxCell>
        <mxCell id="BCuOl30nhSEFEeJvfYAj-6" style="edgeStyle=orthogonalEdgeStyle;curved=1;rounded=0;orthogonalLoop=1;jettySize=auto;html=1;entryX=0.5;entryY=0;entryDx=0;entryDy=0;exitX=0.75;exitY=0;exitDx=0;exitDy=0;" parent="xXxE2y6vjH0ljf1TIgJJ-1" source="xXxE2y6vjH0ljf1TIgJJ-4" target="BCuOl30nhSEFEeJvfYAj-3" edge="1">
          <mxGeometry relative="1" as="geometry" />
        </mxCell>
        <mxCell id="BCuOl30nhSEFEeJvfYAj-7" value="最优开奖结果（mq）" style="text;html=1;resizable=0;points=[];align=center;verticalAlign=middle;labelBackgroundColor=#ffffff;" parent="BCuOl30nhSEFEeJvfYAj-6" vertex="1" connectable="0">
          <mxGeometry x="0.0575" y="-1" relative="1" as="geometry">
            <mxPoint as="offset" />
          </mxGeometry>
        </mxCell>
        <mxCell id="xXxE2y6vjH0ljf1TIgJJ-4" value="预算奖" style="rounded=1;whiteSpace=wrap;html=1;" parent="xXxE2y6vjH0ljf1TIgJJ-1" vertex="1">
          <mxGeometry x="310" y="150" width="120" height="60" as="geometry" />
        </mxCell>
        <mxCell id="xXxE2y6vjH0ljf1TIgJJ-6" value="订单数据：&lt;br&gt;1、订单新增&lt;br&gt;2、订单撤销" style="shape=card;whiteSpace=wrap;html=1;align=left;verticalAlign=middle;" parent="xXxE2y6vjH0ljf1TIgJJ-1" vertex="1">
          <mxGeometry y="240" width="80" height="100" as="geometry" />
        </mxCell>
        <mxCell id="xXxE2y6vjH0ljf1TIgJJ-7" value="预算奖逻辑：&lt;br&gt;0、开奖器会预推几组开奖结果给预开奖服务，由预开奖根据实际的下单情况，选择一组最优结果，反推回开奖器&lt;br&gt;1、判断数据类型：注单、撤单&lt;br&gt;2、判断游戏类型：通过游戏编码，由编码规则反推&lt;br&gt;3、改期游戏的开始时间 &amp;lt; 系统时间，那么将数据保存入延迟队列。后面再重新计算&lt;br&gt;4、对于注单，如果不存在预开奖号码，则暂时将数据存入延时队列。&lt;br&gt;5、累加该期投注金额、盈亏金额&lt;br&gt;6、预开奖结果推送开奖服务（mq），如果推送失败会在redis中暂存，后面通过定时任务重新推送&lt;br&gt;&lt;br&gt;&lt;br&gt;注：&lt;br&gt;1、改期游戏在开始时，会预设几组的开奖结果，最后选择一组进行开奖。预开奖时，多组结果都要计算&lt;br&gt;2、预开奖中间数据不落盘，都是存在redis&lt;br&gt;&lt;br&gt;问题：&lt;br&gt;1、什么时候推送预开奖结果？这个功能是通过jvm的定时任务实现的，如果jvm宕机，可能导致数据无法推送" style="shape=card;whiteSpace=wrap;html=1;align=left;verticalAlign=top;" parent="xXxE2y6vjH0ljf1TIgJJ-1" vertex="1">
          <mxGeometry x="310" y="230" width="390" height="360" as="geometry" />
        </mxCell>
        <mxCell id="xXxE2y6vjH0ljf1TIgJJ-11" style="edgeStyle=orthogonalEdgeStyle;curved=1;rounded=0;orthogonalLoop=1;jettySize=auto;html=1;entryX=0;entryY=0.5;entryDx=0;entryDy=0;" parent="xXxE2y6vjH0ljf1TIgJJ-1" source="xXxE2y6vjH0ljf1TIgJJ-10" target="xXxE2y6vjH0ljf1TIgJJ-3" edge="1">
          <mxGeometry relative="1" as="geometry" />
        </mxCell>
        <mxCell id="xXxE2y6vjH0ljf1TIgJJ-10" value="用户下单、取消订单" style="ellipse;whiteSpace=wrap;html=1;align=center;" parent="xXxE2y6vjH0ljf1TIgJJ-1" vertex="1">
          <mxGeometry x="-260" y="140" width="120" height="80" as="geometry" />
        </mxCell>
        <mxCell id="BCuOl30nhSEFEeJvfYAj-4" style="edgeStyle=orthogonalEdgeStyle;curved=1;rounded=0;orthogonalLoop=1;jettySize=auto;html=1;entryX=0;entryY=0.3;entryDx=0;entryDy=0;" parent="xXxE2y6vjH0ljf1TIgJJ-1" source="BCuOl30nhSEFEeJvfYAj-3" target="xXxE2y6vjH0ljf1TIgJJ-3" edge="1">
          <mxGeometry relative="1" as="geometry" />
        </mxCell>
        <mxCell id="BCuOl30nhSEFEeJvfYAj-5" value="预开奖结果" style="text;html=1;resizable=0;points=[];align=center;verticalAlign=middle;labelBackgroundColor=#ffffff;" parent="BCuOl30nhSEFEeJvfYAj-4" vertex="1" connectable="0">
          <mxGeometry x="-0.1761" y="-6" relative="1" as="geometry">
            <mxPoint as="offset" />
          </mxGeometry>
        </mxCell>
        <mxCell id="BCuOl30nhSEFEeJvfYAj-3" value="开奖器" style="ellipse;whiteSpace=wrap;html=1;align=center;" parent="xXxE2y6vjH0ljf1TIgJJ-1" vertex="1">
          <mxGeometry x="-250" y="-20" width="120" height="80" as="geometry" />
        </mxCell>
        <mxCell id="CYsxs-jbW3MO78TpbT4_-0" value="开奖：&lt;br&gt;1、游戏开始时，会推送一组开开奖结果到预算奖服务；&lt;br&gt;2、在游戏封盘时，接收来自预算奖计算的开奖结果，进行开奖&lt;br&gt;3、开奖结果将会推送给游戏服务及订单计算服务&lt;br&gt;4、如果预开奖没有及时推送开奖结果，那么将会自动生成一组随机开奖结果" style="shape=card;whiteSpace=wrap;html=1;verticalAlign=top;align=left;" parent="xXxE2y6vjH0ljf1TIgJJ-1" vertex="1">
          <mxGeometry x="-470" y="-70" width="210" height="180" as="geometry" />
        </mxCell>
      </root>
    </mxGraphModel>
  </diagram>
  <diagram name="数据库" id="6L5xL9PpI18_9zPCkccx">
    <mxGraphModel dx="1164" dy="637" grid="1" gridSize="10" guides="1" tooltips="1" connect="1" arrows="1" fold="1" page="1" pageScale="1" pageWidth="827" pageHeight="1169" math="0" shadow="0">
      <root>
        <mxCell id="CifzKeh3LDwertUfjv_--0" />
        <mxCell id="CifzKeh3LDwertUfjv_--1" parent="CifzKeh3LDwertUfjv_--0" />
        <mxCell id="CifzKeh3LDwertUfjv_--2" value="game" style="shape=cylinder;whiteSpace=wrap;html=1;boundedLbl=1;backgroundOutline=1;align=center;" parent="CifzKeh3LDwertUfjv_--1" vertex="1">
          <mxGeometry x="150" y="570" width="60" height="80" as="geometry" />
        </mxCell>
        <mxCell id="CifzKeh3LDwertUfjv_--3" value="lottery" style="shape=cylinder;whiteSpace=wrap;html=1;boundedLbl=1;backgroundOutline=1;align=center;" parent="CifzKeh3LDwertUfjv_--1" vertex="1">
          <mxGeometry x="146" y="400" width="60" height="80" as="geometry" />
        </mxCell>
        <mxCell id="CifzKeh3LDwertUfjv_--4" value="cash" style="shape=cylinder;whiteSpace=wrap;html=1;boundedLbl=1;backgroundOutline=1;align=center;" parent="CifzKeh3LDwertUfjv_--1" vertex="1">
          <mxGeometry x="611" y="403" width="60" height="80" as="geometry" />
        </mxCell>
        <mxCell id="CifzKeh3LDwertUfjv_--5" value="platform" style="shape=cylinder;whiteSpace=wrap;html=1;boundedLbl=1;backgroundOutline=1;align=center;" parent="CifzKeh3LDwertUfjv_--1" vertex="1">
          <mxGeometry x="360.5" y="570" width="60" height="80" as="geometry" />
        </mxCell>
        <mxCell id="CifzKeh3LDwertUfjv_--6" value="转账记录" style="text;html=1;resizable=0;points=[];autosize=1;align=left;verticalAlign=top;spacingTop=-4;" parent="CifzKeh3LDwertUfjv_--1" vertex="1">
          <mxGeometry x="687" y="436" width="60" height="20" as="geometry" />
        </mxCell>
        <mxCell id="CifzKeh3LDwertUfjv_--7" value="游戏配置：&lt;br&gt;1、游戏列表&lt;br&gt;2、杀率、赔率&lt;br&gt;3、游戏期号" style="text;html=1;resizable=0;points=[];autosize=1;align=left;verticalAlign=top;spacingTop=-4;" parent="CifzKeh3LDwertUfjv_--1" vertex="1">
          <mxGeometry x="230" y="580" width="90" height="60" as="geometry" />
        </mxCell>
        <mxCell id="CifzKeh3LDwertUfjv_--8" value="trade" style="shape=cylinder;whiteSpace=wrap;html=1;boundedLbl=1;backgroundOutline=1;align=center;" parent="CifzKeh3LDwertUfjv_--1" vertex="1">
          <mxGeometry x="372" y="400" width="60" height="80" as="geometry" />
        </mxCell>
        <mxCell id="CifzKeh3LDwertUfjv_--9" value="系统&amp;amp;站点基础配置" style="text;html=1;resizable=0;points=[];autosize=1;align=left;verticalAlign=top;spacingTop=-4;" parent="CifzKeh3LDwertUfjv_--1" vertex="1">
          <mxGeometry x="443.5" y="600" width="120" height="20" as="geometry" />
        </mxCell>
        <mxCell id="CifzKeh3LDwertUfjv_--10" value="订单&amp;amp;C端客户资产" style="text;html=1;resizable=0;points=[];autosize=1;align=left;verticalAlign=top;spacingTop=-4;" parent="CifzKeh3LDwertUfjv_--1" vertex="1">
          <mxGeometry x="450" y="430" width="120" height="20" as="geometry" />
        </mxCell>
        <mxCell id="CifzKeh3LDwertUfjv_--11" value="user" style="shape=cylinder;whiteSpace=wrap;html=1;boundedLbl=1;backgroundOutline=1;align=center;" parent="CifzKeh3LDwertUfjv_--1" vertex="1">
          <mxGeometry x="611" y="560" width="60" height="80" as="geometry" />
        </mxCell>
        <mxCell id="CifzKeh3LDwertUfjv_--12" value="用户信息&lt;br&gt;代理等" style="text;html=1;resizable=0;points=[];autosize=1;align=left;verticalAlign=top;spacingTop=-4;" parent="CifzKeh3LDwertUfjv_--1" vertex="1">
          <mxGeometry x="683" y="592" width="60" height="30" as="geometry" />
        </mxCell>
        <mxCell id="CifzKeh3LDwertUfjv_--13" value="开奖配置、记录" style="text;html=1;resizable=0;points=[];autosize=1;align=left;verticalAlign=top;spacingTop=-4;" parent="CifzKeh3LDwertUfjv_--1" vertex="1">
          <mxGeometry x="210" y="430" width="100" height="20" as="geometry" />
        </mxCell>
      </root>
    </mxGraphModel>
  </diagram>
</mxfile>
